<svg width="138" height="45" viewBox="0 0 138 45" fill="none" xmlns="http://www.w3.org/2000/svg">
<path d="M13.1001 0.605957V0.797622L12.2959 0.989284V9.48143L13.1001 9.6731V9.86476H9.28765V9.6731L10.0918 9.48143V2.24247L6.93469 9.99745H6.53257L2.43721 2.24247V9.27503L3.50945 9.6731V9.86476H0.962891V9.6731L2.03513 9.27503V0.989284L1.23094 0.797622V0.605957H2.89886C3.15203 0.605957 3.37542 0.635443 3.55413 0.694416C3.73283 0.753389 3.91157 0.827106 4.0456 0.930309C4.19452 1.03351 4.31366 1.15146 4.4179 1.28415C4.52215 1.41684 4.6115 1.57902 4.70086 1.74119L7.61972 7.26994L9.85356 1.74119C9.92802 1.54953 10.0025 1.38735 10.1067 1.25466C10.1961 1.12197 10.3152 1.00403 10.4492 0.900825C10.5833 0.797621 10.7471 0.723902 10.9407 0.679672C11.1343 0.635443 11.3726 0.605957 11.6704 0.605957H13.1001Z" fill="#40DDB6"/>
<path d="M17.8656 3.06787C18.4167 3.06787 18.923 3.14159 19.3549 3.30376C19.7867 3.46594 20.1591 3.70183 20.4718 3.9967C20.7845 4.30631 21.0079 4.67489 21.1717 5.10245C21.3355 5.53 21.41 6.03128 21.41 6.57678C21.41 7.12228 21.3355 7.62355 21.1717 8.05111C21.0079 8.47867 20.7696 8.84725 20.4718 9.15686C20.1591 9.46647 19.7867 9.68762 19.3549 9.8498C18.923 10.012 18.4167 10.0857 17.8656 10.0857C17.3146 10.0857 16.8083 10.012 16.3764 9.8498C15.9446 9.68762 15.5722 9.45173 15.2595 9.15686C14.9468 8.84725 14.7234 8.47867 14.5596 8.05111C14.3958 7.62355 14.3213 7.12228 14.3213 6.57678C14.3213 6.03128 14.3958 5.53 14.5596 5.10245C14.7234 4.67489 14.9617 4.30631 15.2595 3.9967C15.5722 3.68709 15.9446 3.46594 16.3764 3.30376C16.8083 3.14159 17.2997 3.06787 17.8656 3.06787ZM17.8656 9.83505C18.0146 9.83505 18.1635 9.79082 18.3273 9.68762C18.4762 9.58442 18.6102 9.42224 18.7294 9.1716C18.8485 8.92097 18.9528 8.59661 19.0272 8.1838C19.1017 7.75625 19.1464 7.22549 19.1464 6.59152C19.1464 5.94282 19.1017 5.41206 19.0272 4.99924C18.9528 4.58643 18.8485 4.24734 18.7294 4.01144C18.6102 3.77555 18.4762 3.59863 18.3273 3.49543C18.1784 3.39223 18.0295 3.34799 17.8656 3.34799C17.7167 3.34799 17.5678 3.39223 17.404 3.49543C17.2551 3.59863 17.121 3.76081 17.0019 4.01144C16.8827 4.26208 16.7785 4.58643 16.7041 4.99924C16.6296 5.4268 16.5849 5.95756 16.5849 6.59152C16.5849 7.24023 16.6296 7.77099 16.7041 8.1838C16.7785 8.59661 16.8827 8.93571 17.0019 9.1716C17.121 9.4075 17.2551 9.58442 17.404 9.68762C17.5529 9.77608 17.7018 9.83505 17.8656 9.83505Z" fill="#40DDB6"/>
<path d="M27.9176 0.605957C28.7218 0.605957 29.1239 1.00403 29.1239 1.80016V9.49618L29.9281 9.68784V9.8795H28.7218C28.3942 9.8795 28.141 9.83527 27.9474 9.73207C27.7538 9.62887 27.59 9.51092 27.4857 9.39297C27.3517 9.24554 27.2475 9.06862 27.1879 8.8917C27.0688 9.12759 26.9198 9.31926 26.7411 9.49618C26.5922 9.64361 26.3837 9.7763 26.1305 9.90899C25.8774 10.0417 25.5795 10.1007 25.237 10.1007C24.8498 10.1007 24.4924 10.0269 24.1647 9.8795C23.8222 9.73207 23.5393 9.51092 23.301 9.21605C23.0627 8.92119 22.8543 8.55261 22.7202 8.12505C22.5713 7.68275 22.5117 7.18148 22.5117 6.59174C22.5117 6.00201 22.5862 5.50074 22.7202 5.05844C22.8692 4.61614 23.0627 4.2623 23.3308 3.96743C23.5839 3.67257 23.8967 3.45142 24.2541 3.30398C24.6115 3.15655 25.0136 3.08283 25.4604 3.08283C25.6987 3.08283 25.9072 3.11232 26.1008 3.15655C26.2944 3.21552 26.4581 3.2745 26.5922 3.34821C26.756 3.42193 26.89 3.51039 27.0092 3.61359V1.03351L26.205 0.84185V0.650188H27.9176V0.605957ZM26.9794 3.99692C26.8751 3.89372 26.7858 3.80526 26.6667 3.73154C26.5624 3.65782 26.4582 3.59885 26.339 3.53988C26.2199 3.4809 26.1008 3.46616 25.9667 3.46616C25.8029 3.46616 25.6391 3.51039 25.4902 3.59885C25.3412 3.68731 25.2221 3.83474 25.103 4.05589C24.9987 4.27704 24.9094 4.6014 24.8498 4.99946C24.7902 5.41228 24.7605 5.92829 24.7605 6.577C24.7605 7.21096 24.7902 7.71224 24.8498 8.11031C24.9094 8.50837 24.9838 8.81798 25.0881 9.03913C25.1774 9.26028 25.2817 9.42246 25.4157 9.49618C25.5349 9.56989 25.654 9.61412 25.7731 9.61412C25.9816 9.61412 26.1603 9.55515 26.3092 9.45195C26.4581 9.34874 26.5773 9.21605 26.6815 9.08336C26.8007 8.92119 26.9049 8.74427 26.9943 8.5526V3.99692H26.9794Z" fill="#40DDB6"/>
<path d="M34.4108 10.1003C33.2641 10.1003 32.3706 9.79073 31.7451 9.17151C31.1048 8.55229 30.792 7.68243 30.792 6.59143C30.792 6.04593 30.8665 5.54465 31.0303 5.1171C31.1941 4.68954 31.4175 4.32096 31.7004 4.01135C31.9834 3.70174 32.3259 3.48059 32.7429 3.31841C33.145 3.15624 33.5917 3.08252 34.0832 3.08252C34.5895 3.08252 35.0363 3.15624 35.4235 3.28893C35.8256 3.43636 36.1532 3.62802 36.4362 3.86392C36.7191 4.09981 36.9276 4.37993 37.0765 4.70429C37.2254 5.02864 37.2999 5.36773 37.2999 5.73632C37.2999 5.85426 37.2999 5.97221 37.285 6.06067C37.2701 6.14913 37.2552 6.23759 37.2404 6.31131C37.2106 6.39977 37.1957 6.47348 37.1659 6.53246C36.7787 6.60617 36.3617 6.67989 35.9149 6.72412C35.5426 6.78309 35.1108 6.82732 34.6193 6.85681C34.1279 6.88629 33.6215 6.91578 33.0854 6.91578C33.0854 7.46129 33.1301 7.91833 33.2045 8.28691C33.279 8.65549 33.3981 8.95036 33.5322 9.15676C33.6811 9.37791 33.8449 9.52535 34.0385 9.61381C34.2321 9.70227 34.4555 9.7465 34.6789 9.7465C34.947 9.7465 35.2001 9.70227 35.4384 9.59907C35.6766 9.49586 35.8851 9.37792 36.049 9.21574C36.2277 9.05356 36.3617 8.8619 36.4659 8.65549C36.5702 8.44909 36.6149 8.24268 36.6149 8.02153H36.9425C36.9425 8.28691 36.8829 8.53755 36.7638 8.78818C36.6447 9.03882 36.4659 9.25997 36.2426 9.45163C36.0192 9.6433 35.7511 9.79073 35.4384 9.90867C35.1405 10.0414 34.798 10.1003 34.4108 10.1003ZM33.0705 6.57668C33.3683 6.57668 33.6364 6.57669 33.8747 6.56194C34.113 6.5472 34.3066 6.53246 34.4704 6.51771C34.664 6.50297 34.8129 6.47348 34.9469 6.45874C34.9618 6.37028 34.9916 6.26708 35.0065 6.16387C35.0214 6.06067 35.0363 5.95746 35.0512 5.83952C35.0661 5.72157 35.0661 5.58888 35.0661 5.45619C35.0661 5.05812 35.0363 4.71903 34.9767 4.45365C34.9171 4.18827 34.8427 3.96712 34.7384 3.7902C34.6491 3.62802 34.5448 3.49533 34.4108 3.43636C34.2768 3.37739 34.1725 3.33316 34.0534 3.33316C33.9343 3.33316 33.8151 3.37739 33.696 3.46585C33.5769 3.55431 33.4726 3.71648 33.3684 3.93763C33.279 4.17352 33.1897 4.49788 33.1301 4.92543C33.0705 5.35299 33.0705 5.89849 33.0705 6.57668Z" fill="#40DDB6"/>
<path d="M42.9293 3.52504C42.6613 3.52504 42.423 3.58401 42.2145 3.68721C42.006 3.79042 41.8273 3.92311 41.6784 4.0558C41.5146 4.21797 41.3805 4.39489 41.2465 4.58656V9.49608L42.0507 9.68774V9.87941H38.2979V9.68774L39.102 9.49608V3.65773L38.2979 3.46606V3.2744H39.5041C39.8169 3.2744 40.07 3.33337 40.2785 3.43658C40.4721 3.53978 40.6359 3.65773 40.7551 3.77567C40.8891 3.92311 40.9934 4.08528 41.0529 4.2622C41.187 4.07054 41.3507 3.89362 41.5443 3.73144C41.7082 3.59875 41.9167 3.48081 42.1698 3.36286C42.423 3.24491 42.706 3.20068 43.0485 3.20068C43.525 3.20068 43.8824 3.31863 44.1207 3.52504C44.359 3.74619 44.4632 4.0558 44.4632 4.45387C44.4632 4.74873 44.3739 4.99937 44.1952 5.17629C44.0165 5.35321 43.7633 5.44167 43.4655 5.44167C43.391 5.44167 43.3314 5.44167 43.2569 5.44167C43.1825 5.44167 43.1378 5.42692 43.0932 5.42692C43.0336 5.41218 42.974 5.41218 42.9293 5.38269V3.52504Z" fill="#40DDB6"/>
<path d="M50.2262 5.25022C50.2262 4.95535 50.1964 4.68998 50.1368 4.46883C50.0772 4.24768 50.0028 4.07076 49.8986 3.93807C49.8092 3.79063 49.705 3.68743 49.5709 3.62846C49.4518 3.56948 49.3326 3.52525 49.2135 3.52525C49.005 3.52525 48.8263 3.58423 48.6774 3.68743C48.5285 3.79063 48.3944 3.92332 48.3051 4.05601C48.186 4.21819 48.0966 4.39511 48.0072 4.58677V9.4963L48.8114 9.68796V9.87962H45.0586V9.68796L45.8627 9.4963V3.65794L45.0586 3.46628V3.27462H46.2649C46.5776 3.27462 46.8308 3.33359 47.0392 3.43679C47.2328 3.54 47.3967 3.65794 47.5158 3.77589C47.6498 3.92332 47.7541 4.0855 47.8136 4.26242C47.9328 4.04127 48.0817 3.83486 48.2604 3.65794C48.4093 3.51051 48.6178 3.37782 48.8561 3.24513C49.0944 3.11244 49.4071 3.05347 49.7645 3.05347C50.1517 3.05347 50.5091 3.11244 50.8219 3.24513C51.1495 3.36308 51.4176 3.54 51.6409 3.73166C51.8643 3.93807 52.0431 4.15922 52.1771 4.4246C52.3111 4.68998 52.3706 4.95535 52.3706 5.23548V9.48155L53.1748 9.67322V9.86488H51.4325C50.6283 9.86488 50.2262 9.46681 50.2262 8.67067V5.25022Z" fill="#40DDB6"/>
<path d="M2.37793 19.1974V18.6519H12.728V19.1974L10.5538 19.7429V30.8741H18.3573V19.7429L16.183 19.1974V18.6519H26.5331V19.1974L24.3588 19.7429V42.7424L26.5331 43.2879V43.8334H16.183V43.2732L18.3573 42.7277V31.7734H10.5538V42.7277L12.728 43.2732V43.8187H2.37793V43.2732L4.55218 42.7277V19.7281L2.37793 19.1974Z" fill="#37393F"/>
<path d="M39.3997 25.301C40.9038 25.301 42.2441 25.5222 43.4355 25.9497C44.6268 26.3773 45.6246 27.0113 46.4586 27.8369C47.2925 28.6625 47.9329 29.665 48.3648 30.8445C48.7967 32.024 49.02 33.3509 49.02 34.84C49.02 36.329 48.7967 37.6559 48.3648 38.8354C47.9329 40.0149 47.2925 41.0027 46.4586 41.8283C45.6246 42.6539 44.6119 43.2879 43.4355 43.7154C42.2441 44.143 40.9038 44.3641 39.3997 44.3641C37.8956 44.3641 36.5553 44.143 35.3639 43.7154C34.1725 43.2879 33.1747 42.6539 32.3408 41.8283C31.5068 41.0027 30.8664 40.0001 30.4346 38.8354C30.0027 37.6559 29.7793 36.329 29.7793 34.84C29.7793 33.3509 30.0027 32.024 30.4346 30.8445C30.8664 29.665 31.5068 28.6772 32.3408 27.8369C33.1747 26.9965 34.1874 26.3773 35.3639 25.9497C36.5553 25.5222 37.8956 25.301 39.3997 25.301ZM39.3997 43.627C39.8167 43.627 40.2188 43.4943 40.6358 43.2289C41.0527 42.9635 41.4101 42.5065 41.7378 41.843C42.0654 41.1796 42.3335 40.2802 42.542 39.145C42.7504 38.0098 42.8547 36.5649 42.8547 34.8105C42.8547 33.056 42.7504 31.6112 42.542 30.4759C42.3335 29.3407 42.0654 28.4414 41.7378 27.7779C41.4101 27.1145 41.0378 26.6574 40.6358 26.392C40.2337 26.1267 39.8167 25.994 39.3997 25.994C38.9827 25.994 38.5806 26.1267 38.1636 26.392C37.7467 26.6574 37.3892 27.1145 37.0616 27.7779C36.7339 28.4414 36.4659 29.3407 36.2574 30.4759C36.0489 31.6112 35.9447 33.056 35.9447 34.8105C35.9447 36.5649 36.0489 38.0098 36.2574 39.145C36.4659 40.2802 36.7339 41.1796 37.0616 41.843C37.3892 42.5065 37.7615 42.9635 38.1636 43.2289C38.5806 43.4943 38.9827 43.627 39.3997 43.627Z" fill="#37393F"/>
<path d="M76.2282 31.2283C76.2282 30.3732 76.1538 29.636 76.0049 29.061C75.8559 28.486 75.6772 27.9995 75.4389 27.6309C75.2007 27.2623 74.9475 26.9969 74.6794 26.82C74.3965 26.6578 74.1284 26.5694 73.8604 26.5694C73.3987 26.5694 72.9966 26.7168 72.6392 27.0117C72.2818 27.3066 71.9839 27.6457 71.7159 27.9995C71.4329 28.427 71.1649 28.9136 70.9564 29.4296V42.7281L73.1455 43.2736V43.8191H62.989V43.2736L65.1633 42.7281V31.2283C65.1633 30.3732 65.0888 29.636 64.9399 29.061C64.791 28.486 64.6123 27.9995 64.374 27.6309C64.1357 27.2623 63.8826 26.9969 63.6145 26.82C63.3316 26.6578 63.0635 26.5694 62.7954 26.5694C62.3337 26.5694 61.9317 26.7168 61.5743 27.0117C61.2169 27.3066 60.919 27.6457 60.6509 27.9995C60.3531 28.427 60.0999 28.9136 59.8914 29.4296V42.7281L62.0657 43.2736V43.8191H51.9092V43.2736L54.0835 42.7281V26.9232L51.9092 26.3777V25.8322H55.1706C56.0194 25.8322 56.7194 25.9797 57.2555 26.2598C57.8065 26.5399 58.2235 26.8642 58.5512 27.1886C58.9086 27.6014 59.1766 28.0437 59.3553 28.5155C59.668 27.911 60.0552 27.3803 60.5169 26.8937C60.9339 26.4809 61.4402 26.1123 62.0359 25.7732C62.6465 25.4341 63.3762 25.272 64.2549 25.272C65.6994 25.272 66.9652 25.5963 68.0077 26.2303C69.065 26.8643 69.8693 27.6899 70.4203 28.6924C70.733 28.0732 71.1202 27.513 71.5819 26.9969C71.9988 26.5694 72.5052 26.1713 73.1009 25.8175C73.7114 25.4636 74.4411 25.272 75.3198 25.272C76.3176 25.272 77.2111 25.4341 78.0451 25.7438C78.8642 26.0534 79.579 26.4809 80.1747 27.0264C80.7704 27.5719 81.232 28.1912 81.5596 28.9136C81.8873 29.636 82.0511 30.4026 82.0511 31.2135V42.7133L84.2254 43.2588V43.8043H79.5045C77.3302 43.8043 76.2431 42.7281 76.2431 40.5755V31.2283H76.2282Z" fill="#37393F"/>
<path d="M96.1985 44.3497C93.1009 44.3497 90.6884 43.5094 88.9758 41.8139C87.2632 40.1184 86.3994 37.8037 86.3994 34.8255C86.3994 33.3365 86.6228 32.0096 87.0547 30.8301C87.4866 29.6506 88.0971 28.6628 88.8715 27.8225C89.6459 26.9968 90.5842 26.3629 91.6862 25.9353C92.7882 25.5078 93.9945 25.2866 95.2901 25.2866C96.6453 25.2866 97.8665 25.4783 98.9387 25.8616C100.011 26.2449 100.934 26.761 101.679 27.4097C102.423 28.0584 103.004 28.825 103.406 29.6949C103.808 30.5647 104.002 31.4936 104.002 32.4814C104.002 32.8205 103.987 33.1153 103.942 33.366C103.898 33.6166 103.868 33.8377 103.808 34.0294C103.734 34.2653 103.674 34.4717 103.63 34.6339C102.558 34.855 101.441 35.032 100.249 35.1794C99.2366 35.3268 98.06 35.4448 96.7346 35.5627C95.4092 35.6659 94.0094 35.7249 92.5648 35.7249C92.5648 37.214 92.6691 38.4524 92.8925 39.4402C93.1158 40.428 93.4137 41.2241 93.8009 41.8139C94.1881 42.4036 94.6497 42.8164 95.1858 43.0671C95.7219 43.3177 96.3028 43.4504 96.9282 43.4504C97.658 43.4504 98.343 43.3177 98.9834 43.0523C99.6237 42.7869 100.175 42.4331 100.651 41.9908C101.128 41.5485 101.5 41.0472 101.783 40.487C102.066 39.9267 102.2 39.3517 102.2 38.7768H103.109C103.109 39.4992 102.945 40.1921 102.617 40.8556C102.289 41.5338 101.828 42.1235 101.217 42.6395C100.607 43.1555 99.8918 43.5683 99.043 43.8779C98.1792 44.1875 97.2261 44.3497 96.1985 44.3497ZM92.5648 34.8255C93.3839 34.8255 94.1136 34.8108 94.7391 34.7666C95.3646 34.7223 95.9007 34.6929 96.3326 34.6486C96.8389 34.6044 97.2708 34.5454 97.6431 34.4717C97.6878 34.2358 97.7473 33.9704 97.8218 33.6756C97.8665 33.4102 97.9111 33.1153 97.9409 32.791C97.9707 32.4666 98.0005 32.1275 98.0005 31.7737C98.0005 30.6974 97.9111 29.7981 97.7473 29.0609C97.5835 28.3237 97.3601 27.734 97.1069 27.277C96.8538 26.8199 96.5559 26.4956 96.2432 26.3039C95.9156 26.1122 95.5879 26.009 95.2752 26.009C94.9624 26.009 94.6348 26.127 94.3072 26.3481C93.9796 26.584 93.6966 27.0116 93.4435 27.6455C93.1903 28.2795 92.9818 29.1789 92.8031 30.3288C92.6542 31.4788 92.5648 32.9826 92.5648 34.8255Z" fill="#37393F"/>
<path d="M121.828 43.45V28.8689L108.812 18.6665V43.45H121.828Z" fill="#6B77E5"/>
<path d="M137.926 43.45V28.8689L125.119 18.6665V43.45H137.926Z" fill="#6B77E5"/>
</svg>
