<svg width="105" height="99" viewBox="0 0 105 99" fill="none" xmlns="http://www.w3.org/2000/svg">
<path d="M89.2982 83.0231C89.4676 83.0142 89.628 82.9072 89.6904 82.7468C91.8208 77.55 95.012 62.04 95.0298 57.9486C95.11 40.2814 93.3897 35.7621 87.7116 20.8048L86.74 18.2465C86.6508 18.0148 86.3923 17.89 86.1606 17.9791C85.9288 18.0682 85.804 18.3267 85.8932 18.5585L86.8648 21.1168C92.4983 35.9582 94.2008 40.4419 94.1206 57.9397C94.1028 61.9687 90.9473 77.2648 88.8436 82.3991C88.7456 82.6309 88.8615 82.8983 89.0932 82.9874C89.1645 83.0142 89.2269 83.0231 89.2982 83.0231Z" fill="#40DDB6"/>
<path d="M94.1118 62.8957C94.1564 62.8957 94.2009 62.8868 94.2455 62.869C94.4773 62.7799 94.6021 62.5214 94.5129 62.2896C93.5502 59.6689 91.2148 57.289 89.6638 55.7023L89.334 55.3636C88.4783 54.49 86.4816 52.1457 85.9022 51.085C85.6348 50.5947 85.3763 50.1401 85.1267 49.7033C83.4152 46.6815 82.3901 44.8542 81.9712 39.8625C81.9534 39.6129 81.7394 39.4168 81.4809 39.4524C81.2314 39.4703 81.0442 39.6931 81.0709 39.9427C81.5077 45.1305 82.6308 47.1272 84.3423 50.149C84.5829 50.5769 84.8414 51.0315 85.1089 51.5217C85.7417 52.6627 87.783 55.0694 88.6922 55.9965L89.022 56.3352C90.6087 57.9486 92.7747 60.1592 93.6661 62.5927C93.7374 62.7888 93.9246 62.9047 94.1118 62.8957Z" fill="#40DDB6"/>
<path d="M94.4592 45.4693C94.6107 45.4604 94.7623 45.3712 94.8336 45.2197C96.1706 42.5901 97.4988 39.9071 98.7646 37.2507C100.137 34.3627 101.421 31.2963 100.672 28.2567C100.61 28.016 100.369 27.8645 100.128 27.9269C99.8877 27.9893 99.7362 28.23 99.7986 28.4706C100.476 31.225 99.2548 34.122 97.9534 36.8585C96.6876 39.5059 95.3684 42.1801 94.0313 44.8007C93.9155 45.0236 94.0046 45.2999 94.2274 45.4069C94.3077 45.4604 94.379 45.4693 94.4592 45.4693Z" fill="#40DDB6"/>
<path d="M88.1411 17.6287C90.2816 15.2171 90.0617 11.5269 87.6501 9.38648C85.2385 7.24603 81.5483 7.46586 79.4079 9.87749C77.2674 12.2891 77.4872 15.9793 79.8989 18.1198C82.3105 20.2602 86.0007 20.0404 88.1411 17.6287Z" fill="#40DDB6"/>
<path d="M94.7801 24.9142C94.9227 27.3655 97.0264 29.2463 99.4777 29.1037C101.929 28.961 103.81 26.8574 103.667 24.4061C103.525 21.9548 101.421 20.074 98.9696 20.2166C96.5094 20.3592 94.6375 22.4629 94.7801 24.9142Z" fill="#40DDB6"/>
<path d="M76.8543 36.4669C76.9969 38.9182 79.1006 40.799 81.5608 40.6564C84.0121 40.5138 85.8929 38.4101 85.7503 35.9588C85.6076 33.5075 83.504 31.6267 81.0527 31.7693C78.5925 31.903 76.7117 34.0067 76.8543 36.4669Z" fill="#40DDB6"/>
<path d="M82.2916 33.0076C82.5056 32.9987 82.6838 32.8382 82.7106 32.6243C82.8354 31.7953 83.2632 30.1284 83.6198 29.3262C83.7178 29.0944 83.6198 28.827 83.388 28.729C83.1563 28.6309 82.8888 28.729 82.7908 28.9607C82.3986 29.8521 81.944 31.5903 81.8192 32.4995C81.7835 32.7491 81.9529 32.9809 82.2025 33.0165C82.2292 33.0076 82.2649 33.0165 82.2916 33.0076Z" fill="#40DDB6"/>
<path d="M79.9659 33.3732C80.1086 33.3643 80.2512 33.2841 80.3314 33.1593C80.4562 32.9454 80.3938 32.669 80.1799 32.5353C80.1531 32.5086 79.957 32.2857 79.8055 31.0378C79.7698 30.6991 79.8055 30.3871 79.8501 30.0573C79.8857 29.7631 79.9303 29.469 79.9214 29.1303C79.9125 28.8807 79.7074 28.6846 79.4578 28.6846C79.235 28.6846 79.0122 28.8985 79.0122 29.1481C79.0211 29.4333 78.9854 29.6918 78.9498 29.9414C78.9052 30.3158 78.8517 30.6991 78.9052 31.1448C79.0567 32.4105 79.2974 33.0612 79.7074 33.3108C79.7877 33.3554 79.8768 33.3732 79.9659 33.3732Z" fill="#40DDB6"/>
<path d="M79.1009 34.1583C79.1722 34.1583 79.2525 34.1316 79.3149 34.087C79.5288 33.9533 79.5912 33.677 79.4575 33.4631C78.3967 31.7694 77.5143 30.7176 76.7655 30.2363C76.5516 30.1026 76.2752 30.165 76.1415 30.3789C76.0078 30.5928 76.0702 30.8691 76.2842 31.0029C76.9081 31.404 77.7193 32.3934 78.6909 33.9444C78.78 34.087 78.9405 34.1673 79.1009 34.1583Z" fill="#40DDB6"/>
<path d="M100.538 21.839C100.735 21.8301 100.895 21.6785 100.931 21.4824C101.038 20.7158 101.439 19.1827 101.769 18.4339C101.858 18.22 101.769 17.9793 101.555 17.8812C101.341 17.7921 101.1 17.8812 101.002 18.0952C100.645 18.9152 100.226 20.5197 100.102 21.3576C100.066 21.5894 100.226 21.7944 100.458 21.8301C100.476 21.839 100.503 21.839 100.538 21.839Z" fill="#40DDB6"/>
<path d="M99.2992 22.1151C99.4329 22.1062 99.5577 22.0349 99.629 21.9101C99.7449 21.714 99.6825 21.4555 99.4864 21.3396C99.4597 21.3129 99.2814 21.1079 99.1388 19.958C99.0942 19.5658 99.1299 19.2181 99.1744 18.7368C99.2012 18.505 99.219 18.2465 99.2457 17.9346C99.2636 17.7028 99.0853 17.5067 98.8535 17.4889C98.6218 17.4799 98.4257 17.6493 98.4078 17.8811C98.39 18.1752 98.3633 18.4337 98.3365 18.6566C98.283 19.1647 98.2474 19.5747 98.3009 20.056C98.4346 21.2237 98.6574 21.821 99.0407 22.0527C99.1299 22.1062 99.219 22.124 99.2992 22.1151Z" fill="#40DDB6"/>
<path d="M98.4966 22.8374C98.568 22.8374 98.6304 22.8106 98.6928 22.775C98.8889 22.6502 98.9513 22.3917 98.8265 22.1956C97.8549 20.6357 97.0437 19.6641 96.3484 19.2273C96.1523 19.1025 95.8938 19.1649 95.769 19.3521C95.6442 19.5482 95.7066 19.8067 95.8938 19.9315C96.4732 20.2969 97.222 21.2151 98.1134 22.6413C98.2025 22.775 98.3451 22.8463 98.4966 22.8374Z" fill="#40DDB6"/>
<path d="M81.0616 9.5378C81.1418 9.52888 81.2131 9.51105 81.2845 9.46649C81.4895 9.32387 81.5519 9.04754 81.4093 8.84252C80.9368 8.13833 80.1524 6.62298 79.8761 5.78509C79.7959 5.54441 79.5374 5.41962 79.3056 5.49984C79.0649 5.58007 78.9401 5.83857 79.0204 6.07033C79.3234 6.98845 80.1524 8.58402 80.6605 9.35061C80.7496 9.4754 80.9012 9.54671 81.0616 9.5378Z" fill="#40DDB6"/>
<path d="M80.3752 10.4115C80.4109 10.4115 80.4466 10.4026 80.4822 10.3937C80.7318 10.3491 80.8923 10.1085 80.8388 9.86779C80.7942 9.6182 80.5446 9.45775 80.3129 9.51123C80.2683 9.51123 79.9741 9.47558 79.0293 8.64659C78.7708 8.42375 78.5925 8.16525 78.4053 7.88892C78.2359 7.64825 78.0666 7.39866 77.8348 7.14908C77.6655 6.96189 77.3802 6.95297 77.193 7.13125C77.0058 7.30061 76.9969 7.58585 77.1752 7.77304C77.3713 7.97806 77.5139 8.19199 77.6655 8.40592C77.8794 8.71791 78.1022 9.0388 78.441 9.33296C79.3234 10.0995 79.9206 10.4383 80.3752 10.4115Z" fill="#40DDB6"/>
<path d="M80.3042 11.5697C80.4914 11.5608 80.6608 11.436 80.7143 11.2399C80.7856 10.9992 80.643 10.7496 80.4023 10.6783C78.4858 10.1346 77.122 9.93847 76.2485 10.0811C75.9989 10.1257 75.8384 10.3574 75.8741 10.607C75.9187 10.8566 76.1504 11.026 76.4 10.9814C77.1309 10.8566 78.3967 11.0527 80.1616 11.5519C80.2062 11.5608 80.2508 11.5697 80.3042 11.5697Z" fill="#40DDB6"/>
<path d="M92.0787 70.7934C91.0269 70.7577 89.1372 70.0981 88.4508 69.1176C88.3082 68.9126 87.5862 67.8429 87.4346 67.0407C87.2653 66.1137 87.2653 65.3381 87.4346 64.2596C87.6753 62.7621 87.7288 62.6997 87.9873 62.6016C88.1477 62.5392 88.3438 62.4679 89.7433 63.4395C91.4102 64.5894 92.979 67.3972 92.7294 70.0981C92.7205 70.2318 92.6492 70.3477 92.5512 70.419C92.5155 70.6329 92.3461 70.7934 92.1322 70.8023C92.1055 70.7934 92.0966 70.7934 92.0787 70.7934ZM88.326 64.4022C88.1656 65.3827 88.1656 66.0513 88.3171 66.8713C88.3973 67.3259 88.8163 68.0658 89.1907 68.6006C89.6007 69.18 90.911 69.7416 91.8291 69.8664C91.9807 67.5755 90.6169 65.151 89.2263 64.1883C89.1283 64.117 88.7539 63.8852 88.4508 63.698C88.4062 63.9476 88.3528 64.2418 88.326 64.4022Z" fill="#40DDB6"/>
<path d="M82.8626 54.2228C82.6397 54.2049 81.4988 54.0712 80.857 53.7058C80.1349 53.2868 79.6001 52.8322 78.9761 52.0924C78.1293 51.0851 78.0848 51.0138 78.1739 50.7553C78.2274 50.6127 78.2898 50.4433 79.7606 50.0511C81.5166 49.5876 84.3244 50.1581 86.0002 51.8962C86.0805 51.9854 86.1161 52.0924 86.1161 52.1993C86.2498 52.3509 86.2498 52.5826 86.1072 52.7341C85.5278 53.367 84.1996 54.1693 83.1567 54.2228C83.0587 54.2317 82.9606 54.2317 82.8626 54.2228ZM79.9745 50.8355C79.8675 50.8622 79.4932 50.9781 79.1901 51.0762C79.306 51.2188 79.4486 51.3882 79.6001 51.5664C80.1706 52.2439 80.6252 52.6272 81.2759 53.0016C81.6325 53.2066 82.3723 53.3581 82.9517 53.4116C83.5846 53.4829 84.7166 52.9124 85.3406 52.3598C83.8698 50.9336 81.4364 50.4522 79.9745 50.8355Z" fill="#40DDB6"/>
<path d="M85.5813 51.9674C85.4833 51.9228 85.4031 51.8337 85.3763 51.7178C84.7167 49.3913 85.6527 46.6815 86.9362 45.3979C88.0059 44.3193 88.202 44.355 88.3446 44.3817C88.5942 44.4263 88.6477 44.4798 89.0934 45.7455C89.4143 46.6637 89.5391 47.35 89.5391 48.1879C89.5391 48.9189 89.0666 49.9707 88.9775 50.1757C88.5318 51.1473 86.9808 52.0298 86.0627 52.2259C86.0449 52.2348 86.0181 52.2348 86.0003 52.2348C85.8042 52.2526 85.6348 52.1367 85.5813 51.9674ZM87.4978 45.9684C86.4282 47.038 85.617 49.3824 86.1162 51.3701C86.9095 51.1116 87.9702 50.4075 88.2287 49.837C88.4694 49.3111 88.719 48.598 88.719 48.1879C88.719 47.4392 88.612 46.8508 88.3179 46.0219C88.2555 45.8436 88.1753 45.6207 88.095 45.4157C87.8633 45.6297 87.5691 45.8971 87.4978 45.9684Z" fill="#40DDB6"/>
<path d="M94.6823 54.3121C94.4773 54.2765 94.3436 54.0893 94.3525 53.8843C94.2812 53.804 94.2455 53.6882 94.2633 53.5723C94.5842 51.1834 96.5185 49.0619 98.2032 48.3934C99.6205 47.8318 99.7721 47.9388 99.8969 48.019C100.111 48.1616 100.138 48.2329 100.048 49.57C99.9771 50.5416 99.8255 51.219 99.4868 51.9856C99.2016 52.6363 98.4172 53.3762 98.1765 53.5901C97.6327 54.0715 96.6433 54.3211 95.7787 54.3656C95.3686 54.3924 94.9764 54.3745 94.6823 54.3121ZM98.5063 49.1421C97.0979 49.6948 95.4221 51.531 95.0923 53.5545C95.9213 53.6258 97.1692 53.4118 97.6417 52.984C98.0695 52.5918 98.5865 52.0391 98.747 51.6558C99.05 50.9695 99.1838 50.3901 99.2462 49.5076C99.2551 49.3204 99.2729 49.0797 99.2818 48.8658C98.9698 48.9728 98.6044 49.1065 98.5063 49.1421Z" fill="#40DDB6"/>
<path d="M97.6765 38.846C97.5071 38.748 97.4447 38.543 97.5249 38.3736C97.4893 38.2756 97.4893 38.1686 97.5427 38.0705C98.5411 36.1006 100.832 34.8348 102.499 34.7457C102.517 34.7457 102.534 34.7457 102.552 34.7457C103.952 34.6833 104.068 34.8259 104.148 34.9329C104.299 35.129 104.282 35.2092 103.809 36.3324C103.453 37.1613 103.114 37.7051 102.588 38.2667C102.124 38.7658 101.153 39.1848 100.966 39.265C100.752 39.3541 100.502 39.4076 100.226 39.4165C99.3255 39.4789 98.2469 39.1848 97.6765 38.846ZM102.57 35.4945C101.144 35.5747 99.1561 36.6443 98.2558 38.3112C98.96 38.6321 100.119 38.8193 100.654 38.5875C101.144 38.3825 101.759 38.0438 102.017 37.7675C102.49 37.2594 102.784 36.7959 103.105 36.0382C103.194 35.8243 103.274 35.6371 103.328 35.4945C103.025 35.4855 102.668 35.4855 102.57 35.4945Z" fill="#40DDB6"/>
<path d="M97.2312 38.6145C96.3755 38.463 94.9047 37.7231 94.4501 36.8496C94.352 36.6624 93.8796 35.7175 93.844 35.0401C93.8083 34.2646 93.8885 33.6317 94.147 32.767C94.5036 31.5815 94.5481 31.528 94.7799 31.4745C94.9136 31.4389 95.083 31.4032 96.1259 32.3481C97.3649 33.4712 98.3365 35.9403 97.8284 38.1153C97.8017 38.2223 97.7393 38.3114 97.6501 38.356C97.6056 38.5075 97.4719 38.6145 97.3114 38.6234C97.2936 38.6145 97.2579 38.6145 97.2312 38.6145ZM94.869 32.9721C94.6373 33.7565 94.5571 34.3002 94.5927 34.9866C94.6105 35.361 94.869 36.0117 95.1097 36.493C95.3771 37.01 96.3844 37.6161 97.1242 37.8212C97.4986 35.9671 96.6518 33.8367 95.6178 32.8918C95.5465 32.8294 95.2702 32.5888 95.0384 32.4105C94.9849 32.5977 94.9225 32.8116 94.869 32.9721Z" fill="#40DDB6"/>
<path d="M85.9907 26.9644C85.7322 26.8396 84.8498 26.376 84.4308 25.868C83.9406 25.2707 83.6286 24.7092 83.3255 23.8623C82.9066 22.6857 82.9155 22.6233 83.067 22.4451C83.1561 22.3381 83.272 22.2044 84.6715 22.3559C86.3384 22.5253 88.5846 23.9337 89.4671 25.9838C89.5117 26.0819 89.5028 26.1889 89.4671 26.2869C89.5295 26.4652 89.4582 26.6613 89.2799 26.7504C88.8431 26.9733 88.139 27.1515 87.4437 27.1961C86.9088 27.205 86.3829 27.1515 85.9907 26.9644ZM84.5913 23.0868C84.4932 23.0779 84.1277 23.0512 83.8336 23.0423C83.8871 23.2116 83.9584 23.4167 84.0208 23.6038C84.2971 24.3704 84.5645 24.8518 85.0013 25.3866C85.242 25.6808 85.8303 26.0551 86.3116 26.2869C86.8375 26.5454 88.0052 26.4295 88.7184 26.1532C87.9339 24.4417 85.9818 23.2295 84.5913 23.0868Z" fill="#40DDB6"/>
<path d="M88.9687 25.9662C88.8885 25.9038 88.8261 25.8147 88.8172 25.7077C88.5676 23.4882 89.8156 21.1528 91.1705 20.1811C92.3025 19.3611 92.4897 19.4235 92.6056 19.468C92.8373 19.5483 92.8641 19.6285 93.0869 20.8229C93.2474 21.7054 93.2563 22.3472 93.1315 23.1138C93.0245 23.7645 92.4897 24.6024 92.3203 24.8431C91.7677 25.6631 90.2256 26.2336 89.361 26.2782C89.1559 26.2871 88.9955 26.1534 88.9687 25.9662ZM91.6072 20.7784C90.4752 21.5984 89.3788 23.613 89.5481 25.5027C90.3058 25.3868 91.3755 24.9055 91.7053 24.4152C92.0083 23.9695 92.3382 23.3545 92.4006 22.9801C92.5164 22.2937 92.5075 21.75 92.356 20.9388C92.3114 20.716 92.2758 20.5199 92.249 20.3594C91.9905 20.5288 91.6875 20.7249 91.6072 20.7784Z" fill="#40DDB6"/>
<path d="M92.5429 70.2587C92.3647 70.1161 92.3201 69.8576 92.4449 69.6615C92.4181 69.5456 92.4449 69.4119 92.5162 69.3049C94.0939 67.1032 97.1246 66.0157 99.1302 66.2475C100.824 66.4347 100.931 66.6308 101.011 66.7734C101.145 67.023 101.136 67.1121 100.343 68.3868C99.7631 69.3138 99.255 69.9021 98.5152 70.4815C97.8734 70.9896 96.6255 71.3194 96.3848 71.3818C96.26 71.4175 96.1174 71.4353 95.9747 71.4442C94.8249 71.4977 93.2739 70.847 92.5429 70.2587ZM99.0411 67.1389C97.3475 66.9517 94.7268 67.8787 93.3452 69.7149C94.1207 70.223 95.4845 70.6687 96.1709 70.4904C96.8037 70.33 97.5971 70.0448 97.9625 69.7595C98.6222 69.2425 99.0589 68.7344 99.5848 67.8965C99.6829 67.745 99.8255 67.4954 99.9592 67.2815C99.5938 67.2191 99.157 67.1567 99.0411 67.1389Z" fill="#40DDB6"/>
<path d="M50.4162 98.9699C63.9473 98.9699 76.5871 93.6127 86.0001 83.8789L84.4937 82.417C75.4818 91.7409 63.3858 96.8663 50.4251 96.8663C24.2987 96.8663 3.03933 75.6069 3.03933 49.4805C3.03933 23.3542 24.2809 2.09474 50.4162 2.09474C57.2798 2.09474 63.9028 3.52987 70.0889 6.35554L70.9625 4.4569C64.5 1.49752 57.5829 0 50.4162 0C23.1221 0 0.926758 22.1954 0.926758 49.4894C0.926758 76.7835 23.1221 98.9699 50.4162 98.9699Z" fill="#6B77E5"/>
<path d="M19.8775 34.8615C19.2 34.4871 18.6652 33.9612 18.273 33.2837C17.8808 32.6063 17.6758 31.8486 17.6758 31.0107C17.6758 30.1728 17.8719 29.4151 18.273 28.7466C18.6652 28.0781 19.2 27.5522 19.8775 27.1778C20.5549 26.8034 21.2948 26.6162 22.097 26.6162C22.9082 26.6162 23.648 26.8034 24.3166 27.1778C24.994 27.5522 25.5199 28.0781 25.9121 28.7466C26.3043 29.4151 26.4915 30.1728 26.4915 31.0107C26.4915 31.8486 26.2954 32.6063 25.9032 33.2837C25.511 33.9612 24.9762 34.4782 24.3076 34.8615C23.6391 35.2359 22.8993 35.423 22.0881 35.423C21.2859 35.423 20.546 35.2359 19.8775 34.8615ZM23.7461 32.8291C24.1561 32.3745 24.3611 31.7684 24.3611 31.0196C24.3611 30.262 24.1561 29.6558 23.7461 29.2012C23.336 28.7466 22.7834 28.5238 22.097 28.5238C21.4017 28.5238 20.8491 28.7466 20.4391 29.2012C20.029 29.6469 19.824 30.262 19.824 31.0285C19.824 31.7862 20.029 32.3924 20.4391 32.847C20.8491 33.3016 21.4017 33.5244 22.097 33.5244C22.7834 33.5155 23.336 33.2837 23.7461 32.8291Z" fill="#37393F"/>
<path d="M38.1688 35.343L36.3771 32.0984H35.8779V35.343H33.7832V26.7412H37.2952C37.9727 26.7412 38.5521 26.8571 39.0245 27.0978C39.5059 27.3384 39.8624 27.6593 40.0942 28.0694C40.3259 28.4794 40.4507 28.9429 40.4507 29.451C40.4507 30.0215 40.2903 30.5296 39.9694 30.9842C39.6485 31.4388 39.1671 31.7508 38.5432 31.938L40.531 35.343H38.1688ZM35.8779 30.6098H37.1794C37.5627 30.6098 37.8479 30.5117 38.044 30.3246C38.2312 30.1374 38.3292 29.87 38.3292 29.5312C38.3292 29.2014 38.2312 28.9518 38.044 28.7557C37.8479 28.5685 37.5627 28.4705 37.1794 28.4705H35.8779V30.6098Z" fill="#37393F"/>
<path d="M53.5979 29.4593C53.4464 29.1741 53.2235 28.9513 52.9294 28.7997C52.6352 28.6482 52.2965 28.5769 51.9043 28.5769C51.2268 28.5769 50.6831 28.7997 50.273 29.2454C49.863 29.6911 49.658 30.2883 49.658 31.0282C49.658 31.8215 49.8719 32.4365 50.2998 32.8822C50.7276 33.3279 51.316 33.5508 52.0736 33.5508C52.5906 33.5508 53.0274 33.4171 53.375 33.1586C53.7316 32.9001 53.9901 32.5257 54.1505 32.0354H51.4942V30.4933H56.0492V32.4455C55.8977 32.9714 55.6302 33.4527 55.2559 33.9073C54.8815 34.353 54.409 34.7185 53.8386 34.9948C53.2681 35.2711 52.6174 35.4138 51.9043 35.4138C51.0575 35.4138 50.2998 35.2266 49.6313 34.8522C48.9627 34.4778 48.4457 33.9608 48.0713 33.3012C47.697 32.6416 47.5098 31.8839 47.5098 31.0371C47.5098 30.1903 47.697 29.4326 48.0713 28.7641C48.4457 28.0955 48.9627 27.5785 49.6223 27.2041C50.282 26.8298 51.0396 26.6426 51.8864 26.6426C52.9115 26.6426 53.7851 26.8922 54.4893 27.3913C55.1935 27.8905 55.6659 28.5769 55.8887 29.4593H53.5979Z" fill="#37393F"/>
<path d="M23.3807 49.8367H20.1717L19.6547 51.3521H17.4619L20.5728 42.7502H22.9974L26.1083 51.3521H23.8888L23.3807 49.8367ZM22.8459 48.2233L21.7762 45.0767L20.7244 48.2233H22.8459Z" fill="#37393F"/>
<path d="M40.8782 51.3606H38.7834L35.2803 46.0569V51.3606H33.1855V42.7588H35.2803L38.7834 48.0892V42.7588H40.8782V51.3606Z" fill="#37393F"/>
<path d="M50.6123 42.7588V51.3606H48.5176V42.7588H50.6123Z" fill="#37393F"/>
<path d="M18.2284 60.7914C18.5939 60.1229 19.1109 59.6059 19.7616 59.2315C20.4123 58.8571 21.1611 58.6699 21.999 58.6699C23.0241 58.6699 23.8976 58.9373 24.6196 59.4811C25.3506 60.0159 25.8319 60.7557 26.0815 61.6828H23.7817C23.6124 61.3262 23.3717 61.0499 23.0508 60.8627C22.7388 60.6755 22.3823 60.5775 21.9811 60.5775C21.3394 60.5775 20.8134 60.8003 20.4123 61.2549C20.0112 61.7006 19.8151 62.3068 19.8151 63.0555C19.8151 63.8043 20.0112 64.4104 20.4123 64.8561C20.8134 65.3018 21.3394 65.5335 21.9811 65.5335C22.3823 65.5335 22.7388 65.4444 23.0508 65.2483C23.3628 65.0611 23.6035 64.7848 23.7817 64.4282H26.0815C25.8408 65.3553 25.3506 66.0951 24.6196 66.6299C23.8887 67.1648 23.0151 67.4322 21.999 67.4322C21.17 67.4322 20.4212 67.245 19.7616 66.8706C19.102 66.4962 18.5939 65.9792 18.2284 65.3196C17.863 64.66 17.6758 63.9023 17.6758 63.0555C17.6758 62.2176 17.863 61.4599 18.2284 60.7914Z" fill="#37393F"/>
<path d="M38.8465 65.855H35.6375L35.1205 67.3704H32.9277L36.0386 58.7686H38.4632L41.5741 67.3704H39.3546L38.8465 65.855ZM38.3028 64.2416L37.2331 61.0951L36.1813 64.2416H38.3028Z" fill="#37393F"/>
<path d="M50.7373 65.7567H53.4828V67.3701H48.6426V58.7683H50.7373V65.7567Z" fill="#37393F"/>
<path d="M19.8238 75.3045C19.9486 75.4561 20.011 75.6343 20.011 75.8304C20.011 75.9998 19.9664 76.1424 19.8773 76.2761C19.7881 76.4098 19.6633 76.5168 19.5029 76.5881C19.3424 76.6683 19.1463 76.704 18.9324 76.704H17.6221V73.4326H18.87C19.0928 73.4326 19.289 73.4683 19.4494 73.5485C19.6098 73.6287 19.7346 73.7268 19.8149 73.8516C19.8951 73.9764 19.9397 74.119 19.9397 74.2794C19.9397 74.4666 19.8862 74.6271 19.7881 74.7519C19.6901 74.8767 19.5564 74.9747 19.387 75.0282C19.5564 75.0549 19.699 75.1441 19.8238 75.3045ZM18.1569 74.8053H18.8254C19.0037 74.8053 19.1374 74.7697 19.2355 74.6895C19.3335 74.6092 19.387 74.4934 19.387 74.3418C19.387 74.1903 19.3335 74.0833 19.2355 73.9942C19.1374 73.914 18.9948 73.8694 18.8254 73.8694H18.1569V74.8053ZM19.3157 76.1335C19.4227 76.0444 19.4672 75.9196 19.4672 75.768C19.4672 75.6076 19.4137 75.4828 19.2979 75.3847C19.1909 75.2867 19.0394 75.2421 18.8611 75.2421H18.1569V76.2672H18.8789C19.0661 76.2672 19.2087 76.2226 19.3157 76.1335Z" fill="#37393F"/>
<path d="M23.6034 76.5254C23.3449 76.3827 23.1488 76.1866 22.9973 75.9281C22.8457 75.6696 22.7744 75.3844 22.7744 75.0635C22.7744 74.7426 22.8457 74.4573 22.9973 74.1988C23.1488 73.9403 23.3449 73.7442 23.6034 73.6016C23.8619 73.459 24.1382 73.3877 24.4413 73.3877C24.7533 73.3877 25.0296 73.459 25.2881 73.6016C25.5466 73.7442 25.7427 73.9403 25.8942 74.1988C26.0458 74.4573 26.1171 74.7426 26.1171 75.0635C26.1171 75.3844 26.0458 75.6696 25.8942 75.9281C25.7427 76.1866 25.5466 76.3827 25.2881 76.5254C25.0296 76.668 24.7533 76.7393 24.4413 76.7393C24.1382 76.7393 23.853 76.668 23.6034 76.5254ZM25.0207 76.1242C25.1901 76.0262 25.3238 75.8836 25.4218 75.6964C25.5199 75.5092 25.5644 75.3042 25.5644 75.0546C25.5644 74.8139 25.5199 74.6 25.4218 74.4217C25.3238 74.2434 25.1901 74.1008 25.0207 74.0027C24.8513 73.9047 24.6552 73.8601 24.4413 73.8601C24.2274 73.8601 24.0313 73.9047 23.8619 74.0027C23.6925 74.1008 23.5588 74.2434 23.4608 74.4217C23.3627 74.6 23.3182 74.8139 23.3182 75.0546C23.3182 75.2952 23.3627 75.5092 23.4608 75.6964C23.5588 75.8836 23.6925 76.0173 23.8619 76.1242C24.0313 76.2223 24.2274 76.2758 24.4413 76.2758C24.6552 76.2758 24.8513 76.2223 25.0207 76.1242Z" fill="#37393F"/>
<path d="M31.1081 73.4326V73.8694H30.2346V76.704H29.6997V73.8694H28.8262V73.4326H31.1081Z" fill="#37393F"/>
<path d="M35.9844 76.0356H34.6117L34.3799 76.7041H33.8184L34.995 73.4238H35.6189L36.7956 76.7041H36.234L35.9844 76.0356ZM35.8329 75.5988L35.2981 74.0745L34.7632 75.5988H35.8329Z" fill="#37393F"/>
<path d="M42.3403 76.7041H41.8055L40.1921 74.2617V76.7041H39.6572V73.4238H40.1921L41.8055 75.8662V73.4238H42.3403V76.7041Z" fill="#37393F"/>
<path d="M45.9411 73.4326V76.704H45.4062V73.4326H45.9411Z" fill="#37393F"/>
<path d="M49.0433 74.1988C49.1948 73.9403 49.3909 73.7442 49.6494 73.6016C49.9079 73.459 50.1842 73.3877 50.4873 73.3877C50.835 73.3877 51.1469 73.4768 51.4144 73.6462C51.6818 73.8156 51.8868 74.0562 52.0027 74.3771H51.3609C51.2806 74.2078 51.1559 74.0741 51.0043 73.9938C50.8528 73.9047 50.6834 73.869 50.4784 73.869C50.2645 73.869 50.0684 73.9136 49.899 74.0117C49.7296 74.1097 49.5959 74.2523 49.4979 74.4306C49.3998 74.6089 49.3553 74.8228 49.3553 75.0635C49.3553 75.3042 49.3998 75.5181 49.4979 75.6964C49.5959 75.8746 49.7296 76.0173 49.899 76.1153C50.0684 76.2134 50.2645 76.2668 50.4784 76.2668C50.6745 76.2668 50.8528 76.2223 51.0043 76.1421C51.1559 76.0529 51.2717 75.9281 51.3609 75.7588H52.0027C51.8779 76.0707 51.6818 76.3114 51.4144 76.4808C51.138 76.6501 50.835 76.7393 50.4873 76.7393C50.1753 76.7393 49.899 76.668 49.6405 76.5254C49.382 76.3827 49.1859 76.1866 49.0344 75.9281C48.8828 75.6696 48.8115 75.3844 48.8115 75.0635C48.8115 74.7426 48.8917 74.4484 49.0433 74.1988Z" fill="#37393F"/>
<path d="M56.9766 76.0356H55.6039L55.3721 76.7041H54.8105L55.9872 73.4238H56.6111L57.7878 76.7041H57.2262L56.9766 76.0356ZM56.8251 75.5988L56.2902 74.0745L55.7554 75.5988H56.8251Z" fill="#37393F"/>
<path d="M61.1755 76.2672H62.2808V76.704H60.6406V73.4326H61.1755V76.2672Z" fill="#37393F"/>
<path d="M56.0055 44.6499V45.6126H57.1376V46.0494H56.0055V47.0566H57.2802V47.4934H55.4707V44.2131H57.2802V44.6499H56.0055Z" fill="#37393F"/>
<path d="M59.8379 47.4127C59.6597 47.3325 59.526 47.2255 59.4279 47.0829C59.3298 46.9403 59.2764 46.7798 59.2764 46.5926H59.8468C59.8558 46.7353 59.9182 46.8511 60.0162 46.9403C60.1143 47.0294 60.2569 47.074 60.4352 47.074C60.6224 47.074 60.765 47.0294 60.8719 46.9403C60.9789 46.8511 61.0235 46.7353 61.0235 46.5926C61.0235 46.4857 60.9878 46.3965 60.9254 46.3252C60.863 46.2539 60.7828 46.2004 60.6847 46.1648C60.5867 46.1291 60.453 46.0846 60.2836 46.04C60.0697 45.9865 59.9003 45.9241 59.7666 45.8706C59.6329 45.8171 59.517 45.7191 59.4279 45.6032C59.3298 45.4784 59.2853 45.318 59.2853 45.113C59.2853 44.9258 59.3298 44.7564 59.4279 44.6138C59.526 44.4712 59.6507 44.3642 59.8201 44.2929C59.9895 44.2216 60.1856 44.177 60.4084 44.177C60.7293 44.177 60.9878 44.2572 61.1928 44.4177C61.3979 44.5781 61.5048 44.7921 61.5316 45.0684H60.9343C60.9254 44.9525 60.8719 44.8455 60.765 44.7653C60.658 44.6851 60.5243 44.6405 60.3549 44.6405C60.2034 44.6405 60.0786 44.6762 59.9806 44.7564C59.8825 44.8366 59.8379 44.9436 59.8379 45.0951C59.8379 45.1932 59.8647 45.2823 59.9271 45.3447C59.9895 45.4071 60.0697 45.4606 60.1588 45.4962C60.2569 45.5319 60.3817 45.5765 60.5421 45.621C60.7561 45.6834 60.9343 45.7369 61.068 45.7993C61.2018 45.8617 61.3176 45.9508 61.4157 46.0756C61.5137 46.2004 61.5583 46.3609 61.5583 46.5748C61.5583 46.7442 61.5137 46.8957 61.4246 47.0472C61.3355 47.1988 61.2017 47.3147 61.0324 47.4038C60.863 47.4929 60.658 47.5375 60.4262 47.5375C60.2123 47.5286 60.0162 47.484 59.8379 47.4127Z" fill="#37393F"/>
<path d="M65.7302 44.2219V44.6587H64.8566V47.4933H64.3218V44.6587H63.4482V44.2219H65.7302Z" fill="#37393F"/>
<path d="M55.7019 52.4131C56.0049 52.1546 56.2367 51.9406 56.415 51.7713C56.5933 51.6019 56.7359 51.4236 56.8518 51.2454C56.9676 51.0671 57.03 50.8799 57.03 50.7016C57.03 50.5144 56.9855 50.3629 56.8963 50.2559C56.8072 50.149 56.6646 50.0955 56.4774 50.0955C56.2902 50.0955 56.1476 50.1579 56.0495 50.2738C55.9426 50.3896 55.8891 50.5501 55.8891 50.7462H55.3721C55.381 50.3896 55.4879 50.1133 55.693 49.9261C55.898 49.7389 56.1565 49.6409 56.4774 49.6409C56.8161 49.6409 57.0835 49.7389 57.2796 49.9261C57.4757 50.1133 57.5738 50.3629 57.5738 50.6838C57.5738 50.9066 57.5203 51.1295 57.4044 51.3345C57.2885 51.5395 57.1548 51.7267 56.9944 51.8961C56.8339 52.0654 56.6378 52.2526 56.3882 52.4665L56.1743 52.6537H57.6629V53.0994H55.3721V52.7072L55.7019 52.4131Z" fill="#37393F"/>
<path d="M59.8115 50.1132C59.9987 49.8101 60.3107 49.6497 60.7653 49.6497C61.2199 49.6497 61.5318 49.8012 61.7101 50.1132C61.8973 50.4162 61.9865 50.8441 61.9865 51.3879C61.9865 51.9405 61.8973 52.3684 61.7101 52.6803C61.5229 52.9923 61.2109 53.1439 60.7653 53.1439C60.3196 53.1439 59.9987 52.9923 59.8115 52.6803C59.6243 52.3684 59.5352 51.9405 59.5352 51.3879C59.5352 50.8441 59.6243 50.4162 59.8115 50.1132ZM61.4071 50.7371C61.3714 50.5589 61.309 50.4162 61.2109 50.3093C61.1129 50.2023 60.9614 50.1399 60.7653 50.1399C60.5692 50.1399 60.4176 50.1934 60.3196 50.3093C60.2215 50.4252 60.1502 50.5678 60.1235 50.7371C60.0967 50.9065 60.07 51.1293 60.07 51.3789C60.07 51.6463 60.0878 51.8603 60.1146 52.0475C60.1413 52.2347 60.2126 52.3684 60.3107 52.4842C60.4087 52.5912 60.5602 52.6536 60.7563 52.6536C60.9525 52.6536 61.104 52.6001 61.202 52.4842C61.3001 52.3773 61.3714 52.2257 61.3981 52.0475C61.4249 51.8692 61.4427 51.6463 61.4427 51.3789C61.4516 51.1293 61.4338 50.9154 61.4071 50.7371Z" fill="#37393F"/>
<path d="M64.2595 52.4131C64.5626 52.1546 64.7943 51.9406 64.9726 51.7713C65.1509 51.6019 65.2935 51.4236 65.4094 51.2454C65.5253 51.0671 65.5877 50.8799 65.5877 50.7016C65.5877 50.5144 65.5431 50.3629 65.4539 50.2559C65.3648 50.149 65.2222 50.0955 65.035 50.0955C64.8478 50.0955 64.7052 50.1579 64.6071 50.2738C64.5002 50.3896 64.4467 50.5501 64.4467 50.7462H63.9297C63.9386 50.3896 64.0456 50.1133 64.2506 49.9261C64.4556 49.7389 64.7141 49.6409 65.035 49.6409C65.3737 49.6409 65.6411 49.7389 65.8372 49.9261C66.0333 50.1133 66.1314 50.3629 66.1314 50.6838C66.1314 50.9066 66.0779 51.1295 65.962 51.3345C65.8462 51.5395 65.7124 51.7267 65.552 51.8961C65.3916 52.0654 65.1954 52.2526 64.9459 52.4665L64.7319 52.6537H66.2205V53.0994H63.9297V52.7072L64.2595 52.4131Z" fill="#37393F"/>
<path d="M68.3779 50.1132C68.5651 49.8101 68.8771 49.6497 69.3317 49.6497C69.7863 49.6497 70.0983 49.8012 70.2765 50.1132C70.4637 50.4162 70.5529 50.8441 70.5529 51.3879C70.5529 51.9405 70.4637 52.3684 70.2765 52.6803C70.0893 52.9923 69.7774 53.1439 69.3317 53.1439C68.886 53.1439 68.5651 52.9923 68.3779 52.6803C68.1907 52.3684 68.1016 51.9405 68.1016 51.3879C68.1016 50.8441 68.1907 50.4162 68.3779 50.1132ZM69.9735 50.7371C69.9378 50.5589 69.8754 50.4162 69.7774 50.3093C69.6793 50.2023 69.5278 50.1399 69.3317 50.1399C69.1356 50.1399 68.984 50.1934 68.886 50.3093C68.7879 50.4252 68.7166 50.5678 68.6899 50.7371C68.6631 50.9065 68.6364 51.1293 68.6364 51.3789C68.6364 51.6463 68.6542 51.8603 68.681 52.0475C68.7077 52.2347 68.779 52.3684 68.8771 52.4842C68.9751 52.5912 69.1267 52.6536 69.3228 52.6536C69.5189 52.6536 69.6704 52.6001 69.7684 52.4842C69.8665 52.3773 69.9378 52.2257 69.9645 52.0475C69.9913 51.8692 70.0091 51.6463 70.0091 51.3789C70.018 51.1293 70.0002 50.9154 69.9735 50.7371Z" fill="#37393F"/>
</svg>
