<svg width="171" height="45" viewBox="0 0 171 45" fill="none" xmlns="http://www.w3.org/2000/svg">
<path d="M36.5363 44.5753H8.55755C3.95968 44.5753 0.233398 40.8863 0.233398 36.3344V8.63545C0.233398 4.08356 3.95968 0.394531 8.55755 0.394531H36.5363C41.1342 0.394531 44.8605 4.08356 44.8605 8.63545V36.3344C44.8605 40.8863 41.1342 44.5753 36.5363 44.5753Z" fill="#40DDB6"/>
<path d="M30.5863 22.8914C31.382 23.8793 31.7863 25.0298 31.7863 26.3304C31.7863 28.2436 31.1421 29.7443 29.8536 30.8072C28.5652 31.8701 26.721 32.4204 24.321 32.4204H13.8369V10.0986H24.0684C26.3673 10.0986 28.1358 10.5988 29.3863 11.5868C30.6368 12.5747 31.2684 13.9877 31.2684 15.8135C31.2684 17.1641 30.9021 18.277 30.1821 19.1774C29.4621 20.0778 28.5147 20.653 27.34 20.9281C28.7168 21.2533 29.7905 21.9035 30.5863 22.8914ZM19.2811 19.2274H22.8558C24.7505 19.2274 25.6979 18.4271 25.6979 16.8264C25.6979 15.2258 24.7253 14.4254 22.7926 14.4254H19.2811V19.2274ZM26.2031 25.5801C26.2031 24.7797 25.9379 24.1545 25.4074 23.7043C24.8768 23.2541 24.1189 23.029 23.1463 23.029H19.2937V28.0436H23.1842C25.1926 28.0311 26.2031 27.2182 26.2031 25.5801Z" fill="white"/>
<path d="M70.7169 32.4204L65.8412 23.9919H64.6033V32.4204H59.1465V10.0986H68.4559C70.2369 10.0986 71.7527 10.3988 72.978 11.0115C74.2159 11.6243 75.1379 12.4621 75.7569 13.525C76.3758 14.588 76.679 15.801 76.679 17.1766C76.679 18.8022 76.2243 20.1778 75.3274 21.3158C74.418 22.4538 73.1169 23.2291 71.3864 23.6543L76.7421 32.4329H70.7169V32.4204ZM64.6033 20.3029H67.9759C69.0622 20.3029 69.858 20.0653 70.3633 19.5901C70.8685 19.1149 71.1338 18.4146 71.1338 17.4892C71.1338 16.6013 70.8685 15.9135 70.3506 15.4008C69.8327 14.9006 69.0369 14.638 67.9759 14.638H64.6033V20.3029Z" fill="#37393F"/>
<path d="M101.361 28.3559H92.9103L91.5081 32.4326H85.7734L94.0344 10.2734H100.312L108.573 32.4326H102.775L101.361 28.3559ZM99.9586 24.2417L97.1544 16.0383L94.3123 24.2417H99.9586Z" fill="#37393F"/>
<path d="M138.674 32.4204H133.217L124.097 18.7147V32.4204H118.641V10.0986H124.097L133.217 23.9294V10.0986H138.674V32.4204Z" fill="#37393F"/>
<path d="M169.268 27.0431C168.321 28.7313 166.956 30.0568 165.188 31.0072C163.407 31.9576 161.323 32.4328 158.923 32.4328H150.409V10.1111H158.923C161.348 10.1111 163.445 10.5738 165.201 11.4992C166.969 12.4245 168.321 13.7251 169.268 15.4133C170.215 17.1015 170.683 19.0273 170.683 21.2282C170.683 23.4041 170.203 25.3424 169.268 27.0431ZM163.394 25.9176C164.569 24.8047 165.163 23.229 165.163 21.2157C165.163 19.1898 164.569 17.6267 163.394 16.5137C162.22 15.4008 160.565 14.838 158.43 14.838H155.853V27.5933H158.43C160.565 27.5933 162.22 27.0431 163.394 25.9176Z" fill="#37393F"/>
</svg>
