<svg width="151" height="47" viewBox="0 0 151 47" fill="none" xmlns="http://www.w3.org/2000/svg">
<path d="M21.1168 9.84897L22.2337 9.61307C22.5167 9.61307 22.755 9.67205 22.9188 9.78999C23.0826 9.90794 23.172 10.0259 23.172 10.1291C23.172 10.2323 23.1422 10.3945 23.0975 10.5861C23.0528 10.7778 22.6358 12.7534 21.8614 16.4835C21.087 20.2135 20.5211 23 20.1637 24.8282C21.8912 22.4987 23.9166 19.6385 26.2249 16.2328C28.5332 12.8271 29.8884 10.5714 30.2756 9.45089C30.3947 9.09706 30.5585 8.83168 30.7521 8.64001C30.9457 8.44835 31.1244 8.3304 31.2733 8.30092C31.4223 8.27143 31.6605 8.24194 31.9733 8.24194C32.286 8.24194 32.6583 8.31566 33.0902 8.44835C33.5221 8.58104 33.7455 8.80219 33.7455 9.12654C33.7455 9.71628 32.8519 11.4412 31.0797 14.272C29.3076 17.1027 27.2673 20.1103 24.9739 23.2949C22.6805 26.4794 20.7743 29.0005 19.2404 30.8582C18.9724 31.1825 18.6298 31.3595 18.2426 31.3595C17.8554 31.3595 17.4385 31.2857 17.0066 31.1531C16.5747 31.0204 16.3513 30.7845 16.3513 30.4306C16.3513 29.3249 17.3342 23.9878 19.3 14.4489C17.6171 16.6014 15.5769 19.609 13.1793 23.457C10.6774 27.4377 9.26261 29.9146 8.93499 30.8582C8.75628 31.4332 8.54779 31.7723 8.30951 31.8607C8.1457 31.9345 7.96698 31.9639 7.78828 31.9639L6.58201 32.0966C6.34373 32.0966 6.13524 32.0377 5.92675 31.905C5.73315 31.7723 5.62891 31.6396 5.62891 31.4922C5.62891 31.0941 6.19482 29.8851 7.31174 27.88C8.42865 25.875 9.75406 23.6929 11.2582 21.334C12.7623 18.9751 14.326 16.6899 15.9641 14.4636C17.6023 12.2374 18.8681 10.7336 19.7617 9.98166C19.9404 9.81948 20.1488 9.74576 20.3871 9.74576L21.1168 9.84897Z" fill="#37393F"/>
<path d="M39.0168 19.845C39.7912 19.845 40.1784 20.1104 40.1784 20.6264C40.1784 20.9066 40.1188 21.113 39.9848 21.2457C39.8508 21.3784 39.5678 21.8059 39.136 22.5578C38.7041 23.295 38.2275 24.2386 37.7063 25.4033C37.1851 26.5533 36.8425 27.5411 36.6936 28.3519C36.6638 28.4551 36.649 28.5878 36.649 28.7795C36.649 29.3397 36.7979 29.6051 37.1106 29.6051C37.4233 29.6051 37.7808 29.4577 38.1977 29.1776C38.6147 28.8827 38.987 28.5878 39.3147 28.2487C39.6423 27.9244 39.955 27.5853 40.2678 27.2462C40.5805 26.9071 40.7592 26.7007 40.8188 26.6565C40.8784 26.6122 40.9677 26.5827 41.0868 26.5827C41.2804 26.5827 41.3996 26.7302 41.4443 27.025C41.4889 27.3199 41.5038 27.6148 41.5038 27.9391C41.5038 28.2635 41.474 28.4699 41.4145 28.5878C41.1166 29.1628 40.4763 29.8558 39.4636 30.6666C38.4658 31.4775 37.5425 31.8756 36.7234 31.8756C35.9043 31.8756 35.2938 31.625 34.9214 31.1384C34.5491 30.6519 34.3407 30.0917 34.3407 29.5019C34.3407 28.8974 34.4449 28.3814 34.6534 27.9244C33.8045 29.0154 32.8365 29.9295 31.7494 30.6961C30.6474 31.448 29.7687 31.8314 29.0688 31.8314C28.3689 31.8314 27.8179 31.625 27.3711 31.2121C26.8052 30.6961 26.5371 29.9885 26.5371 29.0744C26.5371 28.1603 26.7456 27.2462 27.1626 26.3174C27.5796 25.4033 28.1157 24.5482 28.7859 23.7963C29.456 23.0296 30.2006 22.3367 31.0048 21.7175C32.6876 20.4053 34.2513 19.7566 35.6809 19.7566C36.232 19.7566 36.6787 19.8451 37.0213 20.022C37.3638 20.1989 37.5872 20.4348 37.6765 20.7002C37.9148 20.3316 38.1233 20.1104 38.302 20.0072C38.436 19.8893 38.6892 19.845 39.0168 19.845ZM36.9915 21.5258C35.2491 21.5258 33.4471 22.4841 31.5856 24.4007C30.9303 25.0937 30.3197 25.9046 29.7538 26.8629C29.1879 27.8212 28.9199 28.4699 28.9199 28.8237C28.9199 29.1776 29.0241 29.3545 29.2326 29.3545C29.5156 29.3545 30.3049 28.7942 31.6154 27.6885C32.9259 26.5827 33.7896 25.7571 34.2066 25.2264C34.6832 24.6366 35.6065 23.3982 36.9915 21.5258Z" fill="#37393F"/>
<path d="M50.6038 11.8542L51.2292 12.0017C51.3186 12.0017 51.4079 12.0459 51.4675 12.1344C51.542 12.2228 51.5718 12.3113 51.5718 12.385C51.5718 12.4587 51.4675 12.6799 51.2441 13.0337C51.0207 13.3876 50.7825 13.7856 50.4846 14.2279C50.1868 14.6702 50.0378 14.9209 50.023 14.9651C50.8122 14.9061 51.3782 14.8766 51.7058 14.8766C52.0334 14.8766 52.2568 14.9061 52.3908 14.9503C52.51 14.9946 52.6589 15.1273 52.8078 15.3337C52.9716 15.5401 53.1057 15.7023 53.2397 15.8055C53.3737 15.9087 53.4333 16.0708 53.4333 16.2772C53.4333 16.4837 53.2992 16.6753 53.0461 16.808C52.7929 16.9554 52.51 17.0439 52.2121 17.0734C49.8442 17.3093 48.5486 17.4272 48.3104 17.442C47.4913 18.6951 46.3297 20.6413 44.8553 23.2803C43.381 25.9194 42.5917 27.5854 42.5024 28.2488C42.4577 28.5584 42.4428 28.7943 42.4428 28.986C42.4428 29.3841 42.6513 29.5757 43.0683 29.5757C43.4853 29.5757 43.9469 29.4135 44.4532 29.1039C44.9596 28.7796 45.4361 28.4405 45.8531 28.0719C46.9998 27.0694 47.6104 26.5533 47.6849 26.5533C47.9529 26.5533 48.087 27.0104 48.087 27.9097C48.087 28.3962 47.8636 28.8386 47.4019 29.2366C46.3744 30.1065 45.5106 30.7699 44.8107 31.2122C44.1107 31.6545 43.4108 31.8757 42.696 31.8757C42.5471 31.8757 42.3981 31.8609 42.2641 31.8314C41.445 31.684 40.8493 31.3891 40.477 30.9468C40.0898 30.5045 39.9111 29.9148 39.9111 29.1776C39.9111 28.4405 40.1345 27.5264 40.5813 26.4649C41.028 25.4034 41.5791 24.2681 42.2492 23.0739C43.3512 21.1131 44.4533 19.2849 45.5404 17.5747L44.9596 17.6484C43.7831 17.7811 43.0981 17.84 42.9045 17.84H42.7704C42.4726 17.84 42.1896 17.7811 41.9216 17.6631C41.6535 17.5452 41.5046 17.3977 41.5046 17.2356C41.5046 17.0586 41.5791 16.8965 41.728 16.7343C41.8769 16.5721 41.9663 16.4394 41.996 16.351C42.0705 16.1298 42.3385 15.8792 42.8002 15.6138C43.2619 15.3484 43.6044 15.201 43.8427 15.1862C44.081 15.1715 44.3043 15.1568 44.5277 15.142C44.7511 15.1273 44.9894 15.1273 45.2574 15.1125C45.5255 15.0978 45.734 15.0978 45.8829 15.083L47.253 15.0241C48.1019 13.7561 48.6976 12.9305 49.0103 12.5767C49.3379 12.2081 49.5166 12.0164 49.5613 11.9869C49.606 11.9575 49.7102 11.928 49.874 11.928L50.6038 11.8542Z" fill="#37393F"/>
<path d="M59.7624 26.5824C59.956 26.5824 60.0751 26.7299 60.1198 27.0247C60.1645 27.3196 60.1794 27.6145 60.1794 27.9388C60.1794 28.2632 60.1496 28.4696 60.09 28.5875C59.7922 29.1478 59.1518 29.8407 58.154 30.6516C57.1562 31.4625 56.2031 31.8753 55.3096 31.8753C54.7586 31.8753 54.2523 31.7131 53.7757 31.3888C53.314 31.0644 53.0758 30.4894 53.0758 29.6785C53.0758 28.8677 53.2992 28.0568 53.731 27.2754C51.1993 30.4157 49.2336 31.9785 47.789 31.9785C47.2231 31.9785 46.7615 31.7721 46.404 31.374C46.0466 30.976 45.8828 30.5631 45.8828 30.1208C45.8828 29.6933 45.9424 29.251 46.0615 28.7939C46.1807 28.3369 46.3147 27.9241 46.4487 27.5555C46.5828 27.1869 46.7912 26.7446 47.0593 26.2139C47.3273 25.6831 47.5359 25.2998 47.655 25.0491C47.7741 24.7985 47.9975 24.4447 48.2953 23.9581C48.5932 23.4716 48.9655 22.8082 49.4421 21.9825C49.9186 21.1569 50.3058 20.5377 50.6185 20.1396C50.9313 19.7415 51.2291 19.5351 51.527 19.5351C51.8248 19.5351 52.078 19.6531 52.3014 19.889C52.5247 20.1249 52.6439 20.3313 52.6439 20.4787C52.6439 20.6261 52.3014 21.3043 51.6163 22.5133C49.6059 26.1254 48.5932 28.219 48.5932 28.8234C48.5932 28.9709 48.6528 29.0446 48.757 29.0446C49.2484 29.0446 50.4696 27.9978 52.4056 25.9043C54.3416 23.8107 55.4734 22.4691 55.7861 21.8793C56.0989 21.2896 56.3818 20.7883 56.6797 20.3903C56.9626 19.9922 57.186 19.7415 57.3349 19.6531C57.7668 19.373 58.3327 19.2255 59.0327 19.196C59.1518 19.196 59.2263 19.196 59.2858 19.2108C59.3454 19.2255 59.4199 19.314 59.4943 19.4614C59.5688 19.6089 59.6135 19.7415 59.6135 19.8447C59.5241 20.1249 59.122 20.8768 58.3923 22.1005C57.6775 23.3242 57.2754 24.0171 57.2009 24.1645C55.9947 26.6267 55.399 28.2337 55.399 28.9709C55.399 29.3984 55.5628 29.6048 55.8904 29.6048C56.4861 29.5311 57.2009 29.0593 58.0349 28.2042C58.3476 27.8946 58.6455 27.5702 58.9433 27.2459C59.2412 26.9215 59.4347 26.7299 59.4943 26.6857C59.5688 26.6119 59.6581 26.5824 59.7624 26.5824Z" fill="#37393F"/>
<path d="M64.1849 23.0886C66.5825 20.3906 68.6377 19.0342 70.3205 19.0342C70.7375 19.0342 71.08 19.1522 71.3481 19.4028C71.6161 19.6534 71.7502 19.963 71.7502 20.3611C71.7502 20.7592 71.4672 21.4079 70.9013 22.3367C70.3354 23.2508 69.8142 24.0322 69.3376 24.6662C69.0845 24.9905 68.8015 25.1527 68.4739 25.1527C68.1611 25.1527 67.908 25.0347 67.7293 24.7989C67.5505 24.563 67.4612 24.2976 67.4612 23.988C67.4612 23.295 67.8335 22.4989 68.593 21.629L68.5632 21.5996C68.2207 21.629 67.4016 22.2925 66.0613 23.5604C64.7359 24.8431 63.6041 25.9931 62.6659 26.9956C61.7426 28.0129 60.7299 29.2366 59.6279 30.6962C59.3151 31.1237 59.0471 31.3449 58.8237 31.3449C58.6003 31.3449 58.3174 31.2712 57.9599 31.1385C57.6025 31.0058 57.3791 30.9026 57.3047 30.8436C57.2302 30.7846 57.1855 30.6814 57.1855 30.534C57.1855 30.4013 57.2302 30.2244 57.3047 30.0475C57.3791 29.8558 57.543 29.5904 57.7515 29.2513C57.96 28.9122 58.3025 28.352 58.7492 27.5853C59.196 26.8187 59.881 25.654 60.8193 24.1059C61.7575 22.5579 62.3085 21.6143 62.5021 21.2899C62.8893 20.6265 63.202 20.14 63.4552 19.8451C63.9168 19.2701 64.6912 18.99 65.7784 18.99C66.0167 18.99 66.1507 19.1374 66.1507 19.447C66.1507 19.9188 65.7039 20.8182 64.8253 22.1156L64.1849 23.0886Z" fill="#37393F"/>
<path d="M80.6116 20.0222C80.6116 20.6857 80.3435 21.2754 79.7925 21.7767C79.2415 22.278 78.6309 22.5286 77.931 22.5286C77.7076 22.5286 77.5587 22.4696 77.4842 22.3664C77.4097 22.2632 77.3799 22.1158 77.3799 21.9536C77.3799 21.7914 77.3948 21.6145 77.4395 21.4523C77.0672 21.5703 76.6651 21.762 76.2183 22.0126C75.7716 22.2632 75.2206 22.6318 74.5653 23.1331C73.91 23.6344 73.5824 23.9882 73.5824 24.2388C73.5824 24.3126 73.7016 24.3568 73.9398 24.3568C74.1781 24.3568 74.5504 24.2683 75.0419 24.1061C75.5333 23.944 75.8907 23.8555 76.0843 23.8555C76.2779 23.8555 76.4119 23.8702 76.4715 23.885C76.6055 23.9587 76.7396 24.1061 76.9034 24.342C77.0523 24.5779 77.1268 24.7696 77.1268 24.9023C77.1268 25.035 76.9928 25.2119 76.7247 25.433C76.4566 25.6542 76.1588 25.8164 75.8312 25.9343C75.4886 26.0523 75.2653 26.1407 75.161 26.1997C73.0165 27.3939 71.9443 28.2048 71.9443 28.6471C71.9443 29.4285 72.6144 29.8265 73.9696 29.8265C74.8334 29.8265 75.712 29.5612 76.5758 29.0157C77.3204 28.5586 77.9905 28.0868 78.5862 27.6003C79.1819 27.1285 79.5542 26.8337 79.718 26.7157C79.8818 26.5978 80.001 26.5535 80.0755 26.5535C80.3435 26.5535 80.4775 26.8484 80.4775 27.4381C80.4775 28.0279 80.4478 28.4112 80.3733 28.5881C80.2988 28.7798 80.1052 29.0009 79.7627 29.281C77.5884 31.0355 75.5184 31.9201 73.5824 31.9201C72.54 31.9201 71.7209 31.7727 71.0954 31.4925C69.9487 30.9765 69.3828 30.1951 69.3828 29.1336C69.3828 27.7477 70.3508 26.6862 72.3017 25.9785C71.9145 25.8016 71.6613 25.5952 71.5571 25.3151C71.438 25.0497 71.3933 24.6222 71.3933 24.0324C71.3933 23.4427 71.6762 22.8235 72.2272 22.16C72.7782 21.4966 73.4633 20.9511 74.2675 20.5383C76.0545 19.5799 77.6629 19.1082 79.0628 19.1082C79.4053 19.1082 79.7329 19.1819 80.0903 19.344C80.4478 19.5062 80.6116 19.7274 80.6116 20.0222Z" fill="#37393F"/>
<path d="M115.37 9.76055H115.564C115.623 9.76055 115.668 9.76055 115.683 9.77529C115.698 9.79004 115.713 9.79004 115.742 9.80478C115.772 9.80478 115.787 9.81952 115.817 9.84901C115.861 9.89324 115.936 9.93747 116.025 9.9817C116.144 10.0702 116.204 10.1734 116.204 10.2913C116.204 10.4093 116.085 10.6599 115.847 11.0432C115.608 11.4265 114.998 12.3554 114 13.8592C111.721 17.3091 109.681 20.5232 107.879 23.4718C104.767 28.6025 103.188 31.1826 103.158 31.2121C103.129 31.2416 103.114 31.271 103.099 31.3005C103.084 31.3595 103.054 31.389 102.98 31.389L102.771 31.3448L102.354 31.448L102.116 31.4037L101.863 31.448H101.773L100.925 31.5659C100.418 31.5659 100.165 31.389 100.165 31.0499C100.165 30.9025 100.21 30.7255 100.299 30.5191C100.612 29.782 102.205 27.1134 105.065 22.484C103.188 22.5283 101.327 22.5577 99.4949 22.5577L96.2186 22.543C95.6824 23.3981 94.9378 24.6071 93.9996 26.1846C91.9743 29.6198 90.902 31.3448 90.768 31.3743C90.634 31.4037 90.5297 31.4332 90.4404 31.4332C90.351 31.4332 90.2766 31.389 90.217 31.2858C90.1425 31.1973 90.0979 31.1384 90.0681 31.1384C90.0383 31.1384 89.9936 31.1531 89.9043 31.1973C89.8298 31.2416 89.7107 31.2563 89.5469 31.2563L89.1894 31.2416L89.0554 31.1531C89.0405 31.1531 89.0256 31.1678 89.0107 31.1973C88.9958 31.2268 88.9512 31.2416 88.8916 31.2416C88.4597 31.2416 88.2363 31.0646 88.2363 30.6961C88.2363 30.4602 88.3257 30.1358 88.4895 29.7377C88.6682 29.3397 88.8916 28.9121 89.1745 28.4551C89.4575 27.998 90.1723 26.8923 91.3488 25.1673C92.5104 23.4423 93.0912 22.5725 93.0912 22.5577C92.8976 22.543 92.6742 22.543 92.421 22.5283C91.8998 22.5283 91.5424 22.5135 91.319 22.4693C90.7382 22.3661 90.3361 21.8943 90.1276 21.0539C90.0085 20.6411 89.9638 20.3757 89.9787 20.243C89.9787 19.9777 90.0979 19.8302 90.3361 19.8302L90.7382 19.9334C90.9467 19.9482 91.4233 19.9629 92.1977 20.0072C92.9721 20.0514 93.5231 20.0661 93.8656 20.0661L94.7293 20.0366C96.0548 17.9873 97.6333 15.6579 99.48 13.0631C98.1397 14.1541 96.6504 14.6996 95.0123 14.6996C94.2379 14.6996 93.5677 14.5226 93.0167 14.1541C92.4508 13.7855 92.1828 13.3137 92.1828 12.7534C92.1828 12.1932 92.3913 11.7509 92.8231 11.4118C93.255 11.0874 93.6571 10.9253 94.0443 10.9253C94.4315 10.9253 94.6251 10.9842 94.6251 11.1022C94.6251 11.1464 94.5655 11.1907 94.4613 11.2349C94.357 11.2939 94.2975 11.3381 94.2975 11.3823C94.2975 11.5445 94.4762 11.6919 94.8336 11.8099C95.191 11.9278 95.5931 12.0015 96.0398 12.0015C96.4866 12.0015 97.0227 11.8688 97.678 11.6182C98.3333 11.3676 99.0034 11.0285 99.7033 10.6304C100.686 10.0702 101.461 9.59837 102.027 9.22979C102.354 9.06761 102.652 8.9939 102.95 8.9939C103.248 8.9939 103.441 9.02338 103.575 9.0971C103.709 9.15607 103.799 9.22979 103.858 9.28876C103.918 9.34774 103.992 9.4362 104.052 9.5394C104.126 9.6426 104.186 9.73106 104.26 9.77529C104.32 9.83427 104.365 9.89324 104.365 9.96696C104.365 10.0407 104.32 10.1439 104.245 10.3061C104.171 10.4535 103.784 11.0727 103.084 12.149C102.384 13.2252 101.476 14.5964 100.373 16.2624C99.2715 17.9283 98.4673 19.152 97.961 19.9482C100.686 19.9482 103.62 19.904 106.777 19.8007C110.619 13.8002 112.645 10.6599 112.853 10.365C113.062 10.0702 113.255 9.8785 113.434 9.79004C113.613 9.70158 113.821 9.65735 114.074 9.65735L115.37 9.76055Z" fill="#37393F"/>
<path d="M120.344 19.8156C120.657 19.8156 120.97 19.9483 121.282 20.2285C121.61 20.5086 121.759 20.9214 121.759 21.4816C121.759 22.0419 121.565 22.7643 121.163 23.6636C120.761 24.5482 120.225 25.4623 119.525 26.3912C118.84 27.3053 118.066 28.1751 117.247 28.986C116.413 29.7969 115.519 30.4603 114.566 30.9763C113.598 31.4924 112.734 31.7577 111.945 31.7577C111.156 31.7577 110.53 31.5071 110.054 31.0206C109.577 30.534 109.339 29.8558 109.339 28.986C109.339 28.1161 109.562 27.1431 109.994 26.0963C110.426 25.0348 110.977 24.1059 111.662 23.2951C112.347 22.4842 113.077 21.7618 113.881 21.1131C115.534 19.7862 116.993 19.1375 118.244 19.1375C118.81 19.1375 119.227 19.2701 119.51 19.5503C119.615 19.6387 119.659 19.7272 119.659 19.7862V19.8746C119.823 19.8156 120.046 19.8156 120.344 19.8156ZM118.81 21.8207H118.706C118.349 21.8207 118.17 21.5701 118.17 21.0541C117.425 21.29 116.651 21.7175 115.832 22.322C115.013 22.9265 114.283 23.6489 113.643 24.4745C112.332 26.1258 111.677 27.5264 111.662 28.6616C111.662 29.2219 111.871 29.502 112.288 29.502C112.705 29.502 113.33 29.2219 114.149 28.6911C114.968 28.1604 115.787 27.379 116.606 26.3617C117.41 25.3591 118.021 24.4745 118.423 23.7374C118.825 23.0002 119.034 22.4989 119.034 22.2188C119.019 21.9534 118.944 21.8207 118.81 21.8207Z" fill="#37393F"/>
<path d="M121.431 31.4184L120.687 31.3889H120.418C120.314 31.3594 120.21 31.3004 120.091 31.212C119.972 31.1235 119.882 31.0498 119.823 31.0203C119.763 30.9908 119.733 30.9023 119.733 30.7991C119.733 30.6959 119.778 30.5043 119.853 30.2536C121.833 25.9338 123.754 22.4692 125.616 19.8891C125.824 19.609 126.152 19.3878 126.599 19.2404C127.045 19.0929 127.492 19.0192 127.924 19.0192C128.177 19.0192 128.311 19.2109 128.311 19.609C128.311 19.7269 128.267 19.8743 128.192 20.0513C128.118 20.2429 127.909 20.5378 127.582 20.9654C127.254 21.3929 126.867 21.8794 126.42 22.4102C125.973 22.941 125.72 23.2653 125.661 23.3538C127.06 21.9237 128.311 20.8621 129.443 20.1545C130.575 19.4615 131.379 19.1077 131.885 19.1077C132.392 19.1077 132.779 19.2551 133.047 19.5352C133.315 19.8154 133.449 20.125 133.449 20.4493C133.449 20.7737 133.419 21.0538 133.375 21.2602C133.33 21.4814 133.241 21.7025 133.122 21.9384C133.002 22.1743 132.898 22.3807 132.809 22.5429C132.719 22.7051 132.571 22.9262 132.377 23.1916C132.168 23.457 132.034 23.6486 131.96 23.7518C131.885 23.855 131.722 24.0467 131.483 24.3268C131.245 24.6069 131.111 24.7691 131.096 24.7986C131.379 24.5185 131.781 24.1057 132.288 23.5454C132.794 22.9852 133.226 22.5281 133.583 22.1596C133.941 21.791 134.372 21.3634 134.909 20.8916C135.445 20.4198 135.936 20.0365 136.383 19.7564C137.485 19.0782 138.602 18.7244 139.734 18.7244C140.121 18.7244 140.448 18.8423 140.717 19.0929C140.985 19.3436 141.119 19.6237 141.119 19.9628C141.119 20.3019 140.702 21.1128 139.883 22.3807C139.064 23.6486 138.23 24.9313 137.411 26.214C136.591 27.4966 136.174 28.3075 136.174 28.6466C136.174 29.1037 136.264 29.3838 136.428 29.4722C136.606 29.5607 136.815 29.5902 137.053 29.5754C137.291 29.5607 137.649 29.3985 138.081 29.1037C138.527 28.8088 138.915 28.5139 139.257 28.1896C139.823 27.6883 140.329 27.2018 140.821 26.73C140.925 26.6415 141.029 26.5973 141.163 26.5973C141.357 26.5973 141.476 26.7447 141.521 27.0396C141.565 27.3345 141.58 27.6293 141.58 27.9537C141.58 28.278 141.551 28.4844 141.491 28.6024C141.193 29.1626 140.538 29.8556 139.54 30.6812C138.527 31.4921 137.559 31.9049 136.636 31.9049C136.517 31.9049 136.442 31.9049 136.398 31.8901C135.355 31.7869 134.626 31.5068 134.224 31.035C133.821 30.5632 133.628 30.003 133.628 29.369C133.628 28.7351 133.851 27.9389 134.298 27.0249C134.745 26.1108 135.221 25.2704 135.757 24.5332C136.294 23.7961 136.77 23.1179 137.217 22.5134C137.664 21.9089 137.887 21.5846 137.887 21.5403C137.887 21.4961 137.842 21.4666 137.768 21.4666C137.455 21.4666 136.755 21.9679 135.653 22.9852C133.792 24.7102 132.183 26.3761 130.828 27.9684C130.471 28.396 129.622 29.4575 128.296 31.1825C128.148 31.3889 127.894 31.4921 127.567 31.4921C127.239 31.4921 126.897 31.4331 126.539 31.3004C126.182 31.1677 126.003 31.0055 126.003 30.8139C126.003 30.7107 126.807 29.2953 128.43 26.5678C130.054 23.8403 130.858 22.3512 130.858 22.1153C130.858 21.8647 130.709 21.7467 130.411 21.7467C130.113 21.7467 129.488 22.189 128.55 23.0736C125.973 25.5063 123.978 27.9389 122.563 30.3421C122.474 30.4895 122.295 30.7107 122.027 31.0056C121.759 31.3004 121.52 31.4184 121.431 31.4184Z" fill="#37393F"/>
<path d="M150.962 20.0222C150.962 20.6857 150.694 21.2754 150.143 21.7767C149.592 22.278 148.981 22.5286 148.282 22.5286C148.058 22.5286 147.909 22.4696 147.835 22.3664C147.76 22.2632 147.731 22.1158 147.731 21.9536C147.731 21.7914 147.745 21.6145 147.79 21.4523C147.418 21.5703 147.016 21.762 146.569 22.0126C146.122 22.2632 145.571 22.6318 144.916 23.1331C144.261 23.6344 143.933 23.9882 143.933 24.2388C143.933 24.3126 144.052 24.3568 144.29 24.3568C144.529 24.3568 144.901 24.2683 145.392 24.1061C145.884 23.944 146.241 23.8555 146.435 23.8555C146.629 23.8555 146.763 23.8702 146.822 23.885C146.956 23.9587 147.09 24.1061 147.254 24.342C147.403 24.5779 147.477 24.7696 147.477 24.9023C147.477 25.035 147.343 25.2119 147.075 25.433C146.807 25.6542 146.509 25.8164 146.182 25.9343C145.839 26.0523 145.616 26.1407 145.512 26.1997C143.367 27.3939 142.295 28.2048 142.295 28.6471C142.295 29.4285 142.965 29.8265 144.32 29.8265C145.184 29.8265 146.063 29.5612 146.926 29.0157C147.671 28.5586 148.341 28.0868 148.937 27.6003C149.532 27.1285 149.905 26.8337 150.069 26.7157C150.232 26.5978 150.352 26.5535 150.426 26.5535C150.694 26.5535 150.828 26.8484 150.828 27.4381C150.828 28.0279 150.798 28.4112 150.724 28.5881C150.649 28.7798 150.456 29.0009 150.113 29.281C147.939 31.0355 145.869 31.9201 143.933 31.9201C142.891 31.9201 142.071 31.7727 141.446 31.4925C140.299 30.9765 139.733 30.1951 139.733 29.1336C139.733 27.7477 140.701 26.6862 142.652 25.9785C142.265 25.8016 142.012 25.5952 141.908 25.3151C141.789 25.0497 141.744 24.6222 141.744 24.0324C141.744 23.4427 142.027 22.8235 142.578 22.16C143.129 21.4966 143.814 20.9511 144.618 20.5383C146.405 19.5799 148.013 19.1082 149.413 19.1082C149.756 19.1082 150.084 19.1819 150.441 19.344C150.798 19.5062 150.962 19.7274 150.962 20.0222Z" fill="#37393F"/>
<path d="M0 35.5021C3.91666 37.1239 7.90777 38.3771 11.9734 39.3354C16.0091 40.3379 20.1194 41.0456 24.2297 41.4879C26.2848 41.768 28.3548 41.7975 30.3951 41.9892C32.4651 42.0039 34.5202 42.1661 36.5753 42.0482L39.658 41.9745C40.6856 41.9597 41.7132 41.827 42.7407 41.7681C43.7683 41.6796 44.7958 41.6354 45.8085 41.5027L48.8614 41.0751C52.9568 40.6328 56.933 39.6892 60.8944 38.554C64.9004 37.463 68.683 36.0182 72.689 34.5143C76.7844 33.0253 81.2223 32.0522 85.7197 32.524C87.9387 32.8041 90.1725 33.5118 91.9894 34.8092C93.8211 36.0919 95.1316 37.92 95.9656 39.8367C94.7146 38.1265 93.151 36.7258 91.349 35.856C89.547 34.9861 87.5664 34.6323 85.6006 34.6913C81.6244 34.7502 77.7077 36.0624 74.0293 37.7136C70.2914 39.5418 66.2407 41.1931 62.1602 42.5642C58.0499 43.8763 53.8056 44.9231 49.5018 45.4539C40.9388 46.5744 32.1672 46.5891 23.7084 44.8936C19.4642 44.127 15.3241 42.9328 11.3181 41.4142C7.34186 39.8367 3.455 37.9938 0 35.5021Z" fill="#40DDB6"/>
<path d="M142.414 10.9549C139.093 9.5543 135.712 8.46329 132.287 7.60818C128.877 6.70884 125.422 6.07488 121.952 5.63258C120.224 5.3672 118.467 5.30822 116.74 5.10182C114.997 5.05759 113.27 4.88067 111.527 4.95438C110.664 4.96913 109.785 4.96913 108.921 4.95438C108.058 4.95438 107.179 5.04284 106.315 5.07233C105.451 5.1313 104.573 5.14605 103.709 5.23451L101.118 5.54411C97.6479 5.82424 94.2822 6.53192 90.9166 7.40177C87.5063 8.21266 84.2746 9.36263 80.8345 10.5126C77.3051 11.6773 73.4777 12.385 69.6356 11.8543C67.7442 11.5446 65.838 10.8812 64.3339 9.70173C62.8 8.53701 61.7576 6.94473 61.1172 5.27873C62.1745 6.73832 63.4851 7.93253 64.9892 8.6697C66.4933 9.40687 68.1463 9.71647 69.7994 9.70173C73.1352 9.70173 76.4413 8.64021 79.5687 7.31331C82.7556 5.8095 86.2553 4.4826 89.7401 3.39159C93.2546 2.34482 96.9181 1.54868 100.582 1.16535C107.894 0.398698 115.37 0.575617 122.533 2.25636C126.122 3.00826 129.621 4.15824 132.972 5.5736C136.338 7.01845 139.584 8.69918 142.414 10.9549Z" fill="#6B77E5"/>
</svg>
