<svg width="42" height="42" viewBox="0 0 42 42" fill="none" xmlns="http://www.w3.org/2000/svg">
<path d="M27.4109 40.3798H12.3425C9.59884 40.3798 7.375 38.1556 7.375 35.4123V10.8889" stroke="#40DDB6" stroke-width="2" stroke-miterlimit="10"/>
<path d="M4.02637 1.5H29.4974C32.1678 1.5 34.3326 3.66482 34.3326 6.33527V17.2142" stroke="#40DDB6" stroke-width="2" stroke-miterlimit="10"/>
<path d="M7.35844 10.0442H1V4.67943C1 2.92354 2.42354 1.5 4.17943 1.5C5.93531 1.5 7.35885 2.92354 7.35885 4.67943V10.0442H7.35844Z" stroke="#40DDB6" stroke-width="2" stroke-miterlimit="10"/>
<path d="M40.1167 26.1534L38.6882 28.2935L38.1846 30.8175L35.6611 31.3206L33.521 32.7491L31.3809 31.3206L28.8569 30.8175L28.3538 28.2935L26.9248 26.1534L28.3538 24.0133L28.8569 21.4893L31.3809 20.9862L33.521 19.5576L35.6611 20.9862L38.1846 21.4893L38.6882 24.0133L40.1167 26.1534Z" stroke="#40DDB6" stroke-width="2" stroke-miterlimit="10"/>
<path d="M37.1639 30.6741V39.4501L33.5211 37.0095L29.8779 39.4501V30.6741" stroke="#40DDB6" stroke-width="2" stroke-miterlimit="10"/>
<path d="M13.999 8.83521H25.9876" stroke="#40DDB6" stroke-width="2" stroke-miterlimit="10"/>
<path d="M13.999 14.9954H25.9876" stroke="#40DDB6" stroke-width="2" stroke-miterlimit="10"/>
<path d="M13.999 21.0889H25.9876" stroke="#40DDB6" stroke-width="2" stroke-miterlimit="10"/>
<path d="M13.999 27.05H21.9472" stroke="#40DDB6" stroke-width="2" stroke-miterlimit="10"/>
<path d="M13.999 33.1436H21.9472" stroke="#40DDB6" stroke-width="2" stroke-miterlimit="10"/>
</svg>
