<svg width="42" height="41" viewBox="0 0 42 41" fill="none" xmlns="http://www.w3.org/2000/svg">
<path d="M40.6286 11.243L38.2683 14.3006L37.7749 18.1327L33.9432 18.6257L30.8856 20.9861L27.828 18.6257L23.9963 18.1327L23.5029 14.3006L21.1426 11.243L23.5029 8.18585L23.9963 4.35373L27.828 3.86077L30.8856 1.5L33.9432 3.86077L37.7749 4.35373L38.2683 8.18585L40.6286 11.243Z" stroke="#40DDB6" stroke-width="2" stroke-miterlimit="10"/>
<path d="M36.1852 17.8203V29.3355L30.8851 25.7841L25.585 29.3355V17.8203" stroke="#40DDB6" stroke-width="2" stroke-miterlimit="10"/>
<path d="M23.0052 21.0669C21.4035 23.3274 18.7679 24.7879 15.8131 24.7879C11.2148 24.7879 7.39016 21.2511 7.03047 16.667L5.99609 3.46826H21.907" stroke="#40DDB6" stroke-width="2" stroke-miterlimit="10"/>
<path d="M6.78963 16.6896H4.58176C3.50185 16.6896 2.59239 15.8817 2.46539 14.8093L1.13231 8.49438C0.981917 7.22689 1.97243 6.1123 3.24869 6.1123H6.19432" stroke="#40DDB6" stroke-width="2" stroke-miterlimit="10"/>
<path d="M17.9834 24.354C17.9834 24.354 18.4463 29.7089 21.2227 32.0884" stroke="#40DDB6" stroke-width="2" stroke-miterlimit="10"/>
<path d="M13.796 24.354C13.796 24.354 13.3331 29.7089 10.5566 32.0884" stroke="#40DDB6" stroke-width="2" stroke-miterlimit="10"/>
<path d="M24.088 36.3744H7.69336V33.9614C7.69336 32.7743 8.5811 31.8123 9.67647 31.8123H22.1045C23.1998 31.8123 24.0876 32.7743 24.0876 33.9614V36.3744H24.088Z" stroke="#40DDB6" stroke-width="2" stroke-miterlimit="10"/>
<path d="M25.9604 39.6697H5.81934V38.5234C5.81934 37.3363 6.70708 36.3743 7.80245 36.3743H23.9773C25.0727 36.3743 25.9604 37.3363 25.9604 38.5234V39.6697V39.6697Z" stroke="#40DDB6" stroke-width="2" stroke-miterlimit="10"/>
<path d="M5.81983 39.6697H25.9609V38.5234C25.9609 37.3363 25.0732 36.3743 23.9778 36.3743H7.80295C6.70758 36.3743 5.81983 37.3363 5.81983 38.5234V39.6697V39.6697Z" stroke="#40DDB6" stroke-width="2" stroke-miterlimit="10"/>
<path d="M26.7539 13.3181L29.2659 15.1692L35.2817 7.50073" stroke="#40DDB6" stroke-width="2" stroke-miterlimit="10"/>
</svg>
